<?xml version="1.0" encoding="UTF-8"?>
<svg xmlns="http://www.w3.org/2000/svg" xmlns:xlink="http://www.w3.org/1999/xlink" width="365pt" height="84.71pt" viewBox="0 0 365 84.71" version="1.1">
<defs>
<clipPath id="clip1">
  <path d="M 0 0 L 50 0 L 50 84.710938 L 0 84.710938 Z M 0 0 "/>
</clipPath>
</defs>
<g id="surface1">
<path style=" stroke:none;fill-rule:nonzero;fill:rgb(94.499207%,34.098816%,13.299561%);fill-opacity:1;" d="M 364.855469 63.140625 C 362.933594 64.566406 361.503906 65.15625 359.933594 65.15625 C 357.421875 65.15625 356.140625 63.832031 356.140625 61.265625 L 356.140625 51.570313 L 364.855469 51.570313 L 364.855469 45.757813 L 356.140625 45.757813 L 356.140625 38.570313 L 348.808594 40.390625 L 348.808594 45.757813 L 344.972656 45.757813 L 344.972656 51.570313 L 348.808594 51.570313 L 348.808594 61.910156 C 348.808594 68.164063 351.804688 71.464844 357.367188 71.464844 C 359.738281 71.464844 361.949219 70.875 363.859375 69.734375 L 365 63.242188 L 364.855469 63.140625 "/>
<path style=" stroke:none;fill-rule:nonzero;fill:rgb(94.499207%,34.098816%,13.299561%);fill-opacity:1;" d="M 336.058594 55.457031 C 333.847656 54.917969 332.421875 54.421875 331.726563 54.027344 C 331.035156 53.6875 330.695313 53.191406 330.695313 52.550781 C 330.695313 51.425781 331.976563 50.679688 334.097656 50.679688 C 336.703125 50.679688 340.105469 51.804688 343.050781 53.726563 L 343.195313 53.675781 L 343.195313 47.378906 C 340.484375 45.953125 337.527344 45.21875 334.386719 45.21875 C 327.933594 45.21875 323.808594 48.324219 323.808594 53.046875 C 323.808594 56.933594 326.019531 59.109375 332.566406 60.824219 C 334.777344 61.410156 336.257813 61.910156 337.003906 62.300781 C 337.734375 62.695313 338.089844 63.230469 338.089844 63.925781 C 338.089844 65.101563 336.714844 65.941406 334.59375 65.941406 C 331.097656 65.941406 327.160156 64.460938 323.378906 61.855469 L 323.234375 61.949219 L 324.214844 68.6875 C 327.40625 70.613281 330.5625 71.449219 334.160156 71.449219 C 337.40625 71.449219 340.027344 70.71875 342.042969 69.238281 C 344.019531 67.8125 345 65.886719 345 63.53125 C 345 61.410156 344.359375 59.789063 343.074219 58.558594 C 341.765625 57.328125 339.464844 56.292969 336.058594 55.457031 "/>
<path style=" stroke:none;fill-rule:nonzero;fill:rgb(94.499207%,34.098816%,13.299561%);fill-opacity:1;" d="M 313.808594 62.496094 C 311.6875 64.265625 310.210938 64.957031 308.390625 64.957031 C 305.679688 64.957031 304.203125 63.230469 304.203125 60.234375 L 304.203125 45.757813 L 296.714844 45.757813 L 296.714844 61.75 C 296.714844 67.707031 300.011719 71.449219 305.183594 71.449219 C 308.730469 71.449219 311.28125 69.917969 313.992188 66.386719 L 313.992188 70.914063 L 321.230469 70.914063 L 321.230469 45.757813 L 313.796875 45.757813 L 313.796875 62.496094 L 313.808594 62.496094 "/>
<path style=" stroke:none;fill-rule:nonzero;fill:rgb(94.499207%,34.098816%,13.299561%);fill-opacity:1;" d="M 292.789063 45.363281 C 290.078125 45.363281 288.011719 47.039063 284.515625 51.960938 L 284.515625 45.417969 L 277.226563 46.347656 L 277.226563 70.914063 L 284.710938 70.914063 L 284.710938 56.203125 C 287.90625 54.027344 290.378906 53.152344 293.074219 53.152344 C 293.71875 53.152344 294.253906 53.152344 294.855469 53.296875 L 294.410156 45.574219 C 293.679688 45.417969 293.339844 45.363281 292.789063 45.363281 "/>
<path style=" stroke:none;fill-rule:nonzero;fill:rgb(94.499207%,34.098816%,13.299561%);fill-opacity:1;" d="M 278.21875 36.464844 L 245.679688 36.464844 L 245.679688 43.597656 L 257.984375 43.597656 L 257.984375 70.914063 L 265.914063 70.914063 L 265.914063 43.597656 L 278.21875 43.597656 L 278.21875 36.464844 "/>
<path style=" stroke:none;fill-rule:nonzero;fill:rgb(94.499207%,34.098816%,13.299561%);fill-opacity:1;" d="M 236.230469 47.824219 C 234.109375 46.203125 231.898438 45.363281 229.527344 45.363281 C 226.140625 45.363281 223.234375 46.648438 220.914063 49.199219 C 218.546875 51.804688 217.367188 55.011719 217.367188 58.898438 C 217.367188 62.496094 218.402344 65.441406 220.523438 67.8125 C 222.59375 70.21875 225.144531 71.410156 228.207031 71.410156 C 231.359375 71.410156 233.875 70.179688 236.375 67.378906 L 236.375 70.925781 L 243.664063 70.925781 L 243.664063 33.609375 L 236.230469 35.574219 Z M 236.230469 63.242188 C 234.214844 64.617188 232.539063 65.167969 230.773438 65.167969 C 227.171875 65.167969 224.621094 62.457031 224.621094 58.480469 C 224.621094 54.394531 227.328125 51.582031 231.21875 51.582031 C 232.984375 51.582031 234.515625 51.972656 236.242188 52.957031 L 236.242188 63.242188 L 236.230469 63.242188 "/>
<path style=" stroke:none;fill-rule:nonzero;fill:rgb(94.499207%,34.098816%,13.299561%);fill-opacity:1;" d="M 206.597656 45.167969 C 203.195313 45.167969 200.535156 46.699219 197.839844 50.234375 L 197.839844 45.402344 L 190.550781 46.332031 L 190.550781 70.902344 L 198.035156 70.902344 L 198.035156 54.132813 C 200.15625 52.367188 201.585938 51.726563 203.402344 51.726563 C 206.113281 51.726563 207.632813 53.453125 207.632813 56.398438 L 207.632813 70.914063 L 215.066406 70.914063 L 215.066406 54.867188 C 215.066406 48.910156 211.765625 45.167969 206.597656 45.167969 "/>
<path style=" stroke:none;fill-rule:nonzero;fill:rgb(94.499207%,34.098816%,13.299561%);fill-opacity:1;" d="M 174.699219 45.078125 C 170.8125 45.078125 167.566406 46.359375 164.949219 48.910156 C 162.34375 51.515625 161.058594 54.671875 161.058594 58.363281 C 161.058594 62.105469 162.34375 65.246094 164.894531 67.757813 C 167.40625 70.324219 170.652344 71.59375 174.648438 71.59375 C 178.535156 71.59375 181.78125 70.3125 184.398438 67.707031 C 187.003906 65.101563 188.285156 61.949219 188.285156 58.257813 C 188.285156 54.511719 187.003906 51.359375 184.488281 48.859375 C 181.9375 46.359375 178.691406 45.078125 174.699219 45.078125 M 174.660156 65.257813 C 171.058594 65.257813 168.3125 62.300781 168.3125 58.375 C 168.3125 54.382813 170.96875 51.4375 174.710938 51.4375 C 178.402344 51.4375 181.058594 54.34375 181.058594 58.28125 C 181.046875 62.25 178.351563 65.257813 174.660156 65.257813 "/>
<path style=" stroke:none;fill-rule:nonzero;fill:rgb(94.499207%,34.098816%,13.299561%);fill-opacity:1;" d="M 154.621094 45.757813 L 148.953125 61.554688 L 142.75 45.757813 L 134.671875 45.757813 L 145.15625 69.878906 C 144.019531 72.589844 142.394531 73.765625 139.699219 73.765625 C 138.324219 73.765625 137.042969 73.425781 135.511719 72.640625 L 135.417969 72.734375 L 136.847656 79.527344 C 138.21875 80.117188 139.605469 80.363281 141.179688 80.363281 C 146.347656 80.363281 150.039063 77.40625 152.449219 71.164063 L 162.539063 45.757813 L 154.621094 45.757813 "/>
<path style=" stroke:none;fill-rule:nonzero;fill:rgb(94.499207%,34.098816%,13.299561%);fill-opacity:1;" d="M 125.96875 65.601563 C 121.886719 65.601563 119.175781 63.675781 118.390625 60.339844 L 135.757813 60.339844 C 135.8125 59.5 135.902344 58.609375 135.902344 58.21875 C 135.902344 54.277344 134.816406 51.085938 132.710938 48.664063 C 130.550781 46.253906 127.644531 45.0625 123.953125 45.0625 C 120.261719 45.0625 117.25 46.347656 114.84375 48.859375 C 112.433594 51.425781 111.203125 54.566406 111.203125 58.257813 C 111.203125 62.25 112.433594 65.441406 114.894531 67.851563 C 117.304688 70.257813 120.550781 71.4375 124.648438 71.4375 C 127.839844 71.4375 130.3125 70.902344 133.3125 69.472656 L 135.328125 63.21875 L 135.183594 63.113281 C 131.976563 64.761719 128.964844 65.601563 125.96875 65.601563 M 123.796875 50.441406 C 126.703125 50.441406 128.613281 52.601563 128.964844 56.109375 L 118.339844 56.109375 C 118.730469 52.707031 120.851563 50.441406 123.796875 50.441406 "/>
<path style=" stroke:none;fill-rule:nonzero;fill:rgb(94.499207%,34.098816%,13.299561%);fill-opacity:1;" d="M 103.273438 52.957031 C 106.425781 51.332031 108.140625 48.726563 108.140625 45.574219 C 108.140625 39.867188 103.808594 36.464844 96.519531 36.464844 L 83.769531 36.464844 L 83.769531 70.925781 L 96.570313 70.925781 C 100.457031 70.925781 103.613281 70.039063 105.96875 68.21875 C 108.285156 66.449219 109.464844 64.027344 109.464844 61.03125 C 109.476563 57.273438 107.355469 54.472656 103.273438 52.957031 M 91.308594 42.5625 L 95.589844 42.5625 C 98.691406 42.5625 100.5625 43.988281 100.5625 46.503906 C 100.5625 49.070313 98.496094 50.730469 95.300781 50.730469 L 91.308594 50.730469 Z M 95.996094 64.816406 L 91.320313 64.816406 L 91.320313 56.203125 L 95.796875 56.203125 C 99.59375 56.203125 101.703125 57.734375 101.703125 60.535156 C 101.703125 63.140625 99.527344 64.816406 95.996094 64.816406 "/>
<g clip-path="url(#clip1)" clip-rule="nonzero">
<path style=" stroke:none;fill-rule:nonzero;fill:rgb(94.499207%,34.098816%,13.299561%);fill-opacity:1;" d="M 22.578125 22.746094 C 22.355469 22.746094 22.171875 22.5625 22.171875 22.339844 L 22.171875 0.179688 L 22.054688 -0.00390625 L 21.832031 0.0390625 L 14.320313 7.550781 C 14.042969 7.824219 13.796875 8.414063 13.796875 8.792969 L 13.796875 30.925781 L 14.003906 31.136719 L 40.601563 31.136719 C 40.824219 31.136719 41.007813 31.320313 41.007813 31.542969 L 41.007813 35.507813 C 41.007813 36.085938 40.535156 36.554688 39.960938 36.554688 L 14.003906 36.554688 L 13.859375 36.621094 L 13.796875 36.765625 L 13.796875 65.011719 C 13.796875 68.257813 16.441406 70.902344 19.6875 70.902344 L 39.960938 70.902344 C 40.535156 70.902344 41.007813 71.371094 41.007813 71.949219 L 41.007813 75.925781 C 41.007813 76.148438 40.824219 76.332031 40.601563 76.332031 L 19.6875 76.332031 C 13.441406 76.332031 8.363281 71.253906 8.363281 65.011719 L 8.363281 13.988281 L 8.246094 13.808594 L 8.023438 13.847656 L 0.511719 21.359375 C 0.234375 21.632813 0 22.222656 0 22.601563 L 0 67.457031 C 0 76.972656 7.734375 84.710938 17.238281 84.710938 L 49.203125 84.710938 L 49.410156 84.5 L 49.4375 22.980469 L 49.214844 22.757813 L 22.578125 22.757813 Z M 41.007813 45.980469 L 41.007813 61.464844 C 41.007813 62.039063 40.535156 62.511719 39.960938 62.511719 L 22.632813 62.511719 C 22.410156 62.511719 22.226563 62.328125 22.226563 62.105469 L 22.226563 45.980469 C 22.226563 45.402344 22.695313 44.933594 23.273438 44.933594 L 39.972656 44.933594 C 40.550781 44.933594 41.007813 45.402344 41.007813 45.980469 "/>
</g>
<path style=" stroke:none;fill-rule:nonzero;fill:rgb(94.499207%,34.098816%,13.299561%);fill-opacity:1;" d="M 62.722656 34.710938 L 55.210938 27.195313 L 54.988281 27.15625 L 54.867188 27.339844 L 54.867188 80.089844 L 54.988281 80.273438 L 55.066406 80.285156 L 55.210938 80.21875 L 62.722656 72.707031 C 62.996094 72.433594 63.234375 71.855469 63.234375 71.464844 L 63.234375 35.964844 C 63.234375 35.574219 62.996094 34.984375 62.722656 34.710938 "/>
</g>
</svg>
