<?xml version="1.0" encoding="UTF-8"?>
<svg id="Layer_1" xmlns="http://www.w3.org/2000/svg" version="1.1" viewBox="0 0 1005 501">
  <!-- Generator: Adobe Illustrator 29.7.1, SVG Export Plug-In . SVG Version: 2.1.1 Build 8)  -->
  <defs>
    <style>
      .st0 {
        fill: #f99d2a;
      }
    </style>
  </defs>
  <g>
    <path d="M156.6,303V99.7c0-3.9-.8-5-3.2-5s-2.4,0-4,.4l-28.6,5.4c-3.6.7-4.4,2.1-4.4,5.7v78.6c-15.5-7.9-27.4-11.1-41.3-11.1-19.9,0-36.2,7.1-48.9,20-15.9,16.4-23.8,40-23.8,75,0,56.5,23.8,90,63.6,90s35.4-5.7,57.2-21.1c1.2,4.6,2.4,9.3,4.4,12.5,2.4,4.3,4.4,7.1,7.9,7.1s2.4,0,3.6-.7l25.4-10.7c2-.7,2.4-1.4,2.4-2.5,0-1.8-2-3.6-3.2-5.7-6.4-10-7.1-16.8-7.1-34.7h0ZM116.5,312.7c-13.1,11.4-25.4,16.4-38.9,16.4-24.2,0-33.8-18.2-33.8-64s10.7-61.4,38.1-61.4,21.4,2.5,34.6,8.9v100.1h0ZM309.8,177.6c-4.4-2.5-11.5-3.9-18.7-3.9-23,0-35.4,14.3-49.7,28.9-.4-2.9-2.4-10.4-6-17.1-2.8-5.4-4.4-11.4-9.5-11.4s-2.4.4-3.6.7l-24.2,10c-2.4,1.1-2.8,2.1-2.8,3.6,0,2.1,2.4,5,3.6,7.1,6,11.8,7.9,22.1,7.9,44.7v108.3c0,4.3,1.2,5,6,5h28.6c5.2,0,5.6-.4,5.6-5v-119c15.9-16.4,25.8-21.8,35-21.8s9.1,1.4,14.7,2.9h.8c1.6,0,2.4-.7,4-3.6l10.3-22.9c.4-1.1.8-2.1.8-2.9,0-1.4-.8-2.5-2.8-3.6h0ZM481.2,307v-127.9c0-3.9-1.2-5-3.2-5s-2.4.4-4,.7l-27.8,6.1c-4,.7-5.2,1.8-5.2,5.4v126.8c-13.5,10.4-27.8,15.7-41.3,15.7-19.9,0-26.2-9.3-26.2-36.8v-112.9c0-3.6-1.6-4.6-4-4.6s-2.4,0-3.6.4l-27.8,6.1c-4,.7-5.2,1.8-5.2,5.4v114c0,36.1,13.1,58.6,56.8,58.6s37-5.4,56.8-21.1c1.6,5.7,3.6,11.1,6,14.6,2,3.2,4,5.7,7.5,5.7s2-.4,3.2-.7l25.4-8.6c2-.7,2.8-1.8,2.8-2.9s-.8-2.1-1.6-3.2c-6.4-9.6-8.7-18.2-8.7-35.7h0ZM675.7,181.2l-25.4-4.3c-1.6,0-2.4-.4-3.6-.4-2.4,0-3.6,1.1-4.8,3.9l-37.3,99.3c-4.4,11.4-6.8,21.1-10.7,37.2-3.2-13.6-6.4-25.7-10.3-37.5l-34.2-99c-1.2-2.9-2.4-3.9-5.2-3.9h-2l-30.2,4.3c-3.6.4-4.8,1.4-4.8,2.9s.4,2.5,1.2,4.3l66,166.2c1.6,3.9,2,3.9,6,3.9h23.8c4.4,0,5.2-.7,6.4-3.9l68.3-165.8c.8-2.1,1.2-3.2,1.2-4.3s-1.2-2.1-4.4-2.9h0ZM841.6,340.2c-7.2-12.1-9.5-22.1-9.5-42.2v-70c0-37.9-21.8-53.9-65.6-53.9s-37.8,3.2-56.8,10.4c-3.2,1.1-8,2.5-8,7.1s.4,2.1.8,3.2l6.4,17.5c.8,1.8,2,2.5,3.6,2.5s2.4-.4,3.6-.7c18.7-7.1,32.2-10.4,45.7-10.4,23.4,0,31.4,7.9,31.4,29.7v11.4c-46.9.4-104.1,7.9-104.1,61.5s22.2,51.5,56.4,51.5,36.6-6.1,53.6-21.4c2,6.8,4.4,12.1,6.8,16.1,2,3.6,4,5.7,6.8,5.7s2.4-.4,4-1.1l24.2-10.7c1.2-.4,2-1.4,2-2.5s-.8-2.5-1.2-3.6h0ZM793.1,313.4c-13.5,11.8-25.4,17.1-37.7,17.1s-27-11.4-27-26.8c0-31.1,39.7-32.5,64.8-32.9v42.5Z"/>
    <path class="st0" d="M930.1,70.6c1.5,2.3,2.8,4.3,4.1,6.4,4.7,7.5,8.3,15.5,10.8,24,1.7,5.9,2.5,11.8,3,17.9.2,3.1.1,6.3,0,9.4,0,3.2-1.7,20.9-5.1,37,3.2-1.7,6.2-3.1,9.1-4.9,6.2-3.7,12.2-8.1,17.6-12.9,6.3-5.6,12.3-13.8,13.8-15.9,4.7-6.6,8.4-13.8,11.6-21.2,2.6-5.9,5-12,6.9-18.2.2-.7.4-1.5.6-2.2-22.4-13.6-46.2-20.7-72.4-19.5h0ZM841.5,131.8c0,.4,0,.7,0,.9,1.2,2.8,2.3,5.7,3.6,8.4,3.1,6.4,7,12.3,11.5,17.8,3.8,4.6,7.9,8.8,12.4,12.7,1,.9,2,1.7,3.1,2.4,6.5,4.6,13.5,8.4,20.8,11.7,5,2.2,10,4.2,15,6.1,4,1.4,8,2.9,12.2,4,.5-.8,1-1.6,1.4-2.4,1.5-2.9,3-5.9,4.4-8.8,3-6.1,5.6-12.4,7.6-18.9,2-6.2,3.2-12.6,4.1-19.1.6-3.8,1.1-9.7,1.2-12.2.3-4.4.1-8.8.1-13.2v-2c-40.8,15.3-70.5,18.7-97.7,12.5h0ZM809.4,110.5c.3.1,3.9,2.1,5.4,2.9,4.5,2.2,8.9,4.4,13.4,6.5,2.8,1.3,5.6,2.3,8.5,3.3,5.8,1.8,11.7,3.1,17.7,3.8,3,.3,6.1.4,9.1.5,2.7,0,5.4-.2,8.2-.4,2.6-.2,8-.7,13.1-1.7-.7-1.3-1.3-2.4-1.9-3.6-1.1-2.3-2.2-4.7-3.3-7.1-2.1-4.3-3.7-8.9-5.2-13.4-1.6-4.8-2.8-9.7-3.8-14.6-.9-4.3-1.2-8.7-1.7-13-.3-3.1-.2-6.3,0-9.4,0-3.1.2-6.2.5-9.3.2-1.7.2-3.4.5-5.1.5-3.8,1.2-7.6,1.8-11.4.5-2.6,1.1-5.1,1.6-7.6.1-.6.2-1.2.3-1.9-4.8,2.6-9.2,5.4-13.5,8.4-5.3,3.8-10.3,7.7-14.9,12.3-3.6,3.5-7.1,7.1-10.3,10.9-4.9,5.8-8.8,12.3-12.2,19-2.3,4.5-4.4,9.1-6.5,13.7-1.8,4-3.8,9-6.8,17.3h0ZM898.1,2.5c6.7,2.2,13.3,4.5,19.7,7.3,8.1,3.6,16.2,7.4,23.5,12.4,4.1,2.8,7.9,6,11.4,9.6,5.9,6,11,12.6,15.3,19.8,3.2,5.3,5.8,10.8,8.1,16.8-31.7-7.3-63.7-7.3-96.7,11-1-6.4-1.1-14.2-1-16,0-3.8.2-7.6.5-11.5.3-3.9.7-7.8,1.4-11.7,1-5.7,2.7-11.3,4.9-16.7,1.8-4.5,3.9-8.8,6.2-13.1,1.5-2.9,3.3-5.7,5-8.6.3,0,1.5.4,1.9.5h0Z"/>
  </g>
  <g>
    <path d="M37.1,471.3c.3,0,.5,0,.8.1s.5.3.8.5l4.4,4.6c-1.9,2.5-4.3,4.4-7.2,5.7-2.9,1.3-6.3,1.9-10.3,1.9s-6.9-.6-9.8-1.9c-2.9-1.2-5.3-2.9-7.3-5.1-2-2.2-3.5-4.8-4.6-7.7-1.1-3-1.6-6.2-1.6-9.7s.6-6.8,1.8-9.8c1.2-3,2.9-5.6,5.1-7.7s4.8-3.9,7.9-5.1c3.1-1.2,6.4-1.8,10.1-1.8s3.5.2,5.1.5c1.6.3,3.1.8,4.4,1.3,1.4.6,2.6,1.2,3.8,2,1.2.8,2.2,1.6,3.1,2.6l-3.7,5c-.2.3-.5.6-.9.8-.3.3-.8.4-1.4.4s-.8,0-1.1-.3c-.4-.2-.7-.4-1.1-.6s-.8-.5-1.3-.8c-.5-.3-1-.6-1.7-.8-.6-.3-1.4-.5-2.3-.6-.9-.2-1.9-.3-3-.3-2,0-3.9.4-5.5,1.1-1.7.7-3.1,1.7-4.3,3.1-1.2,1.3-2.1,2.9-2.8,4.8-.7,1.9-1,4-1,6.3s.3,4.6,1,6.5c.7,1.9,1.6,3.5,2.7,4.8,1.1,1.3,2.5,2.3,4,3,1.5.7,3.2,1,4.9,1s1.9,0,2.8-.1c.8,0,1.6-.3,2.3-.5.7-.2,1.4-.6,2-.9.6-.4,1.3-.9,2-1.4.3-.2.5-.4.9-.5.3-.1.6-.2,1-.2Z"/>
    <path d="M62,492.5c-.3.7-.7,1.2-1.1,1.5-.4.3-1.1.5-2.1.5h-7.6l6.6-13.8-13.6-31h9c.8,0,1.4.2,1.8.5.4.4.7.8.9,1.2l5.6,14.7c.5,1.4,1,2.7,1.3,4.1.2-.7.5-1.4.7-2.1s.5-1.4.8-2.1l5.1-14.6c.2-.5.5-.9,1-1.3.5-.3,1.1-.5,1.7-.5h8.2l-18.2,42.9Z"/>
    <path d="M84.4,483.7v-49.1h10.2v18.7c1.3-1.2,2.7-2.2,4.3-3,1.6-.8,3.5-1.1,5.7-1.1s3.4.4,4.9,1.1c1.5.8,2.8,1.9,3.9,3.4,1.1,1.5,2,3.3,2.6,5.4.6,2.1.9,4.6.9,7.3s-.4,4.9-1.1,7.1c-.7,2.2-1.7,4-3,5.6s-2.8,2.8-4.6,3.7c-1.8.9-3.8,1.3-5.9,1.3s-1.9,0-2.7-.3c-.8-.2-1.5-.5-2.2-.8-.7-.4-1.3-.8-1.8-1.3-.6-.5-1.1-1-1.6-1.6l-.4,1.7c-.2.7-.4,1.2-.8,1.4-.4.3-.9.4-1.6.4h-6.8ZM101,456.8c-.7,0-1.4,0-2,.2s-1.2.3-1.7.6c-.5.3-1,.6-1.4,1-.4.4-.9.9-1.3,1.4v14.4c.8.9,1.6,1.5,2.5,1.8.9.3,1.8.5,2.8.5s1.8-.2,2.6-.6c.8-.4,1.5-1,2.1-1.8.6-.8,1-1.9,1.4-3.2s.5-2.9.5-4.8-.1-3.3-.4-4.5-.6-2.2-1.1-3c-.5-.8-1-1.3-1.7-1.6-.7-.3-1.4-.5-2.2-.5Z"/>
    <path d="M137,449.1c2.3,0,4.3.4,6.2,1.1,1.9.7,3.5,1.7,4.8,3.1s2.4,3,3.1,4.9,1.1,4.1,1.1,6.6,0,1.4,0,1.9c0,.5-.2.9-.4,1.1-.2.3-.4.5-.7.6-.3.1-.7.2-1.1.2h-19.6c.3,2.8,1.2,4.9,2.6,6.2,1.4,1.3,3.2,1.9,5.4,1.9s2.2-.1,3.1-.4c.9-.3,1.6-.6,2.3-1s1.3-.7,1.8-1c.6-.3,1.1-.4,1.8-.4s1.4.3,1.8.9l3,3.6c-1.1,1.2-2.2,2.2-3.4,2.9-1.2.8-2.5,1.3-3.7,1.8-1.3.4-2.6.7-3.8.9-1.3.2-2.5.2-3.7.2-2.4,0-4.6-.4-6.7-1.2-2.1-.8-3.9-1.9-5.5-3.5-1.6-1.5-2.8-3.4-3.7-5.7-.9-2.3-1.4-4.9-1.4-7.9s.4-4.4,1.2-6.5c.8-2,1.9-3.8,3.3-5.3,1.5-1.5,3.2-2.7,5.3-3.6,2.1-.9,4.4-1.3,7-1.3ZM137.2,456.2c-1.9,0-3.5.6-4.6,1.7-1.1,1.1-1.8,2.7-2.2,4.8h12.7c0-.8-.1-1.6-.3-2.4-.2-.8-.5-1.4-1-2.1-.5-.6-1.1-1.1-1.9-1.5-.8-.4-1.7-.6-2.8-.6Z"/>
    <path d="M158.1,483.7v-34h6c.5,0,.9,0,1.3.1.3,0,.6.2.9.4s.4.4.5.7c.1.3.2.7.3,1.1l.6,3.2c1.2-1.9,2.6-3.4,4.2-4.6,1.6-1.1,3.2-1.7,5.1-1.7s2.8.4,3.7,1.1l-1.3,7.5c0,.5-.3.8-.5,1-.3.2-.6.3-1,.3s-.8,0-1.3-.1c-.5,0-1.1-.1-1.9-.1-2.7,0-4.8,1.4-6.3,4.3v20.9h-10.2Z"/>
    <path d="M209,466v17.7h-11.1v-47.8h15.6c3.5,0,6.4.4,8.8,1.1,2.4.7,4.4,1.7,6,3,1.5,1.3,2.7,2.8,3.4,4.5.7,1.7,1,3.6,1,5.6s-.2,3-.6,4.4c-.4,1.4-1,2.7-1.9,3.8-.8,1.2-1.8,2.2-3,3.1-1.2.9-2.6,1.7-4.1,2.3.7.4,1.4.8,2.1,1.4.6.5,1.2,1.2,1.7,2l10.2,16.6h-10c-1.9,0-3.2-.7-4-2.1l-7.9-13.9c-.4-.6-.8-1.1-1.2-1.3-.5-.3-1.1-.4-2-.4h-2.8ZM209,458.3h4.5c1.5,0,2.8-.2,3.9-.6,1.1-.4,1.9-.9,2.6-1.6.7-.7,1.2-1.5,1.5-2.4.3-.9.5-1.9.5-2.9,0-2.1-.7-3.7-2.1-4.9-1.4-1.2-3.5-1.8-6.3-1.8h-4.5v14.2Z"/>
    <path d="M256.1,449.1c2.3,0,4.3.4,6.2,1.1,1.9.7,3.5,1.7,4.8,3.1s2.4,3,3.1,4.9,1.1,4.1,1.1,6.6,0,1.4,0,1.9c0,.5-.2.9-.4,1.1-.2.3-.4.5-.7.6-.3.1-.7.2-1.1.2h-19.6c.3,2.8,1.2,4.9,2.6,6.2,1.4,1.3,3.2,1.9,5.4,1.9s2.2-.1,3.1-.4c.9-.3,1.6-.6,2.3-1s1.3-.7,1.8-1c.6-.3,1.1-.4,1.8-.4s1.4.3,1.8.9l3,3.6c-1.1,1.2-2.2,2.2-3.4,2.9-1.2.8-2.5,1.3-3.7,1.8-1.3.4-2.6.7-3.8.9-1.3.2-2.5.2-3.7.2-2.4,0-4.6-.4-6.7-1.2-2.1-.8-3.9-1.9-5.5-3.5-1.6-1.5-2.8-3.4-3.7-5.7-.9-2.3-1.4-4.9-1.4-7.9s.4-4.4,1.2-6.5c.8-2,1.9-3.8,3.3-5.3,1.5-1.5,3.2-2.7,5.3-3.6,2.1-.9,4.4-1.3,7-1.3ZM256.3,456.2c-1.9,0-3.5.6-4.6,1.7-1.1,1.1-1.8,2.7-2.2,4.8h12.7c0-.8-.1-1.6-.3-2.4-.2-.8-.5-1.4-1-2.1-.5-.6-1.1-1.1-1.9-1.5-.8-.4-1.7-.6-2.8-.6Z"/>
    <path d="M298.1,457.1c-.3.4-.5.7-.8.9-.3.2-.7.3-1.1.3s-1-.1-1.4-.3c-.5-.2-1-.4-1.6-.7-.6-.2-1.2-.5-1.9-.7-.7-.2-1.5-.3-2.4-.3-1.3,0-2.3.2-3,.7s-1,1.2-1,2.1.2,1.2.7,1.6c.4.4,1,.8,1.8,1.1.7.3,1.6.6,2.5.9.9.3,1.9.6,2.9,1,1,.4,1.9.8,2.9,1.2.9.5,1.8,1.1,2.5,1.7.7.7,1.3,1.5,1.8,2.5.4,1,.7,2.2.7,3.5s-.3,3.2-.9,4.7c-.6,1.4-1.5,2.6-2.7,3.7-1.2,1-2.7,1.8-4.5,2.4-1.8.6-3.8.9-6.2.9s-2.3-.1-3.5-.3c-1.2-.2-2.3-.5-3.4-.9s-2.1-.8-3-1.3c-.9-.5-1.7-1.1-2.4-1.7l2.4-3.7c.3-.4.6-.8,1-1s.9-.4,1.5-.4,1.1.1,1.6.4c.5.3,1,.5,1.5.9s1.2.6,1.9.9c.7.3,1.7.4,2.8.4s1.5,0,2-.2c.5-.2,1-.4,1.3-.7s.6-.6.7-1,.2-.7.2-1.1c0-.7-.2-1.2-.7-1.7-.5-.4-1.1-.8-1.8-1.1-.7-.3-1.6-.6-2.5-.9s-1.9-.6-2.9-.9c-1-.3-2-.8-2.9-1.3-1-.5-1.8-1.1-2.5-1.9s-1.3-1.7-1.8-2.8c-.5-1.1-.7-2.4-.7-4s.3-2.8.8-4.1c.6-1.3,1.4-2.4,2.5-3.4s2.5-1.8,4.2-2.3c1.7-.6,3.7-.9,5.9-.9s2.4.1,3.6.3c1.1.2,2.2.5,3.2.9,1,.4,1.9.9,2.8,1.4.8.5,1.6,1.1,2.2,1.8l-2.3,3.6Z"/>
    <path d="M317.8,440.3c0,.8-.2,1.6-.5,2.3s-.8,1.3-1.3,1.9c-.6.5-1.2,1-2,1.3s-1.6.5-2.4.5-1.6-.2-2.3-.5c-.7-.3-1.4-.7-1.9-1.3-.6-.5-1-1.2-1.3-1.9-.3-.7-.5-1.5-.5-2.3s.2-1.6.5-2.3c.3-.7.8-1.4,1.3-1.9.6-.5,1.2-1,1.9-1.3.7-.3,1.5-.5,2.3-.5s1.7.2,2.4.5c.8.3,1.4.7,2,1.3.6.5,1,1.2,1.3,1.9s.5,1.5.5,2.3ZM316.6,449.7v34h-10.2v-34h10.2Z"/>
    <path d="M335.3,434.6v49.1h-10.2v-49.1h10.2Z"/>
    <path d="M355.2,440.3c0,.8-.2,1.6-.5,2.3s-.8,1.3-1.3,1.9c-.6.5-1.2,1-2,1.3s-1.6.5-2.4.5-1.6-.2-2.3-.5c-.7-.3-1.4-.7-1.9-1.3-.6-.5-1-1.2-1.3-1.9-.3-.7-.5-1.5-.5-2.3s.2-1.6.5-2.3c.3-.7.8-1.4,1.3-1.9.6-.5,1.2-1,1.9-1.3.7-.3,1.5-.5,2.3-.5s1.7.2,2.4.5c.8.3,1.4.7,2,1.3.6.5,1,1.2,1.3,1.9s.5,1.5.5,2.3ZM354,449.7v34h-10.2v-34h10.2Z"/>
    <path d="M376.8,449.1c2.3,0,4.3.4,6.2,1.1,1.9.7,3.5,1.7,4.8,3.1s2.4,3,3.1,4.9,1.1,4.1,1.1,6.6,0,1.4,0,1.9c0,.5-.2.9-.4,1.1-.2.3-.4.5-.7.6-.3.1-.7.2-1.1.2h-19.6c.3,2.8,1.2,4.9,2.6,6.2,1.4,1.3,3.2,1.9,5.4,1.9s2.2-.1,3.1-.4c.9-.3,1.6-.6,2.3-1s1.3-.7,1.8-1c.6-.3,1.1-.4,1.8-.4s1.4.3,1.8.9l3,3.6c-1.1,1.2-2.2,2.2-3.4,2.9-1.2.8-2.5,1.3-3.7,1.8-1.3.4-2.6.7-3.8.9-1.3.2-2.5.2-3.7.2-2.4,0-4.6-.4-6.7-1.2-2.1-.8-3.9-1.9-5.5-3.5-1.6-1.5-2.8-3.4-3.7-5.7-.9-2.3-1.4-4.9-1.4-7.9s.4-4.4,1.2-6.5c.8-2,1.9-3.8,3.3-5.3,1.5-1.5,3.2-2.7,5.3-3.6,2.1-.9,4.4-1.3,7-1.3ZM377,456.2c-1.9,0-3.5.6-4.6,1.7-1.1,1.1-1.8,2.7-2.2,4.8h12.7c0-.8-.1-1.6-.3-2.4-.2-.8-.5-1.4-1-2.1-.5-.6-1.1-1.1-1.9-1.5-.8-.4-1.7-.6-2.8-.6Z"/>
    <path d="M397.9,483.7v-34h6.3c.6,0,1.2.1,1.6.4s.7.7.9,1.3l.6,2c.7-.6,1.3-1.2,2-1.7.7-.5,1.4-1,2.2-1.3.8-.4,1.7-.6,2.6-.9s1.9-.3,3-.3c1.9,0,3.5.3,4.9,1,1.4.6,2.6,1.5,3.6,2.7,1,1.1,1.7,2.5,2.2,4.1s.8,3.3.8,5.2v21.6h-10.2v-21.6c0-1.7-.4-3-1.1-3.9-.8-.9-1.9-1.4-3.4-1.4s-2.2.2-3.1.7c-1,.5-1.9,1.1-2.8,1.9v24.2h-10.2Z"/>
    <path d="M460.5,457.7c-.3.4-.6.7-.9.9-.3.2-.7.3-1.2.3s-1-.1-1.4-.4c-.4-.2-.9-.5-1.4-.8s-1.1-.6-1.8-.8c-.7-.2-1.5-.4-2.5-.4s-2.3.2-3.2.7c-.9.5-1.7,1.1-2.2,2s-1,1.9-1.3,3.1c-.3,1.2-.4,2.6-.4,4.2,0,3.3.6,5.8,1.9,7.5,1.3,1.8,3,2.6,5.2,2.6s2.1-.1,2.8-.4c.7-.3,1.3-.6,1.8-1,.5-.4.9-.7,1.3-1,.4-.3.9-.5,1.5-.5s1.4.3,1.8.9l3,3.6c-1,1.2-2.2,2.2-3.3,2.9-1.2.8-2.3,1.3-3.6,1.8-1.2.4-2.4.7-3.7.9-1.2.2-2.4.2-3.6.2-2.1,0-4.1-.4-6-1.2-1.9-.8-3.6-1.9-5-3.4-1.4-1.5-2.6-3.3-3.4-5.5-.8-2.2-1.3-4.7-1.3-7.5s.4-4.7,1.1-6.9c.7-2.1,1.8-4,3.2-5.5,1.4-1.6,3.2-2.8,5.3-3.7,2.1-.9,4.6-1.3,7.3-1.3s5,.4,7,1.3c2,.9,3.8,2.1,5.4,3.7l-2.7,3.6Z"/>
    <path d="M482.5,449.1c2.3,0,4.3.4,6.2,1.1,1.9.7,3.5,1.7,4.8,3.1,1.3,1.3,2.4,3,3.1,4.9s1.1,4.1,1.1,6.6,0,1.4,0,1.9c0,.5-.2.9-.4,1.1-.2.3-.4.5-.7.6-.3.1-.7.2-1.1.2h-19.6c.3,2.8,1.2,4.9,2.6,6.2,1.4,1.3,3.2,1.9,5.4,1.9s2.2-.1,3.1-.4c.9-.3,1.6-.6,2.3-1s1.3-.7,1.8-1c.6-.3,1.1-.4,1.8-.4s1.4.3,1.8.9l3,3.6c-1,1.2-2.2,2.2-3.4,2.9-1.2.8-2.5,1.3-3.7,1.8-1.3.4-2.6.7-3.8.9-1.3.2-2.5.2-3.7.2-2.4,0-4.6-.4-6.7-1.2-2.1-.8-3.9-1.9-5.5-3.5-1.6-1.5-2.8-3.4-3.7-5.7-.9-2.3-1.4-4.9-1.4-7.9s.4-4.4,1.2-6.5c.8-2,1.9-3.8,3.3-5.3,1.5-1.5,3.2-2.7,5.3-3.6,2.1-.9,4.4-1.3,7-1.3ZM482.7,456.2c-1.9,0-3.5.6-4.6,1.7-1.1,1.1-1.8,2.7-2.2,4.8h12.7c0-.8-.1-1.6-.3-2.4-.2-.8-.5-1.4-1-2.1-.5-.6-1.1-1.1-1.9-1.5-.8-.4-1.7-.6-2.8-.6Z"/>
    <path d="M501.9,477.9c0-.7.1-1.3.4-2,.3-.6.6-1.1,1.1-1.6.5-.4,1.1-.8,1.7-1.1.7-.3,1.4-.4,2.2-.4s1.8.2,2.6.5c.7.3,1.3.8,1.8,1.4s.8,1.2,1.1,2,.3,1.5.3,2.4-.2,2.3-.5,3.5c-.4,1.2-.9,2.5-1.6,3.7-.7,1.2-1.5,2.5-2.6,3.7s-2.2,2.3-3.5,3.3l-1.8-1.6c-.2-.2-.4-.5-.5-.7-.1-.2-.2-.5-.2-.8s0-.5.2-.7.3-.5.6-.7c.3-.3.6-.6.9-1s.7-.8,1.1-1.2c.3-.5.7-1,1-1.5.3-.5.5-1.1.7-1.7-.8,0-1.5-.3-2.1-.6-.6-.3-1.1-.7-1.6-1.2s-.8-1.1-1-1.7c-.2-.6-.4-1.4-.4-2.1Z"/>
    <path d="M558.4,445.6c-.3.5-.7.9-1,1.2-.4.3-.8.4-1.4.4s-1-.2-1.6-.5c-.6-.3-1.2-.7-2-1.1-.7-.4-1.6-.7-2.5-1.1-.9-.3-2-.5-3.2-.5-2.1,0-3.6.4-4.6,1.3-1,.9-1.5,2.1-1.5,3.6s.3,1.8.9,2.4c.6.6,1.4,1.2,2.4,1.6s2.1.9,3.4,1.3,2.6.8,3.9,1.3,2.6,1,3.9,1.7c1.3.6,2.4,1.4,3.4,2.4,1,1,1.8,2.2,2.4,3.6s.9,3.1.9,5.1-.4,4.3-1.1,6.2c-.8,1.9-1.9,3.6-3.3,5-1.5,1.4-3.2,2.6-5.4,3.4-2.1.8-4.6,1.2-7.3,1.2s-3-.2-4.5-.5-3-.7-4.5-1.3c-1.4-.6-2.8-1.2-4.1-2-1.3-.8-2.4-1.6-3.3-2.6l3.3-5.2c.2-.4.6-.7,1-1,.4-.2.9-.4,1.4-.4s1.3.2,2,.6c.7.4,1.4.9,2.3,1.4.8.5,1.8,1,2.9,1.4,1.1.4,2.4.6,3.9.6s3.6-.4,4.7-1.3c1.1-.9,1.7-2.3,1.7-4.2s-.3-2-.9-2.7c-.6-.7-1.4-1.3-2.4-1.7-1-.5-2.1-.9-3.4-1.2-1.3-.3-2.6-.7-3.9-1.2-1.3-.4-2.6-1-3.9-1.6-1.3-.6-2.4-1.4-3.4-2.5-1-1-1.8-2.3-2.4-3.8-.6-1.5-.9-3.4-.9-5.6s.4-3.5,1.1-5.3c.7-1.7,1.8-3.2,3.2-4.6,1.4-1.3,3.1-2.4,5.2-3.2,2-.8,4.4-1.2,7-1.2s2.9.1,4.3.3c1.4.2,2.7.6,4,1,1.2.4,2.4,1,3.5,1.6,1.1.6,2.1,1.3,2.9,2.1l-2.8,5.2Z"/>
    <path d="M579,440.3c0,.8-.2,1.6-.5,2.3s-.8,1.3-1.3,1.9c-.6.5-1.2,1-2,1.3s-1.6.5-2.4.5-1.6-.2-2.3-.5c-.7-.3-1.4-.7-1.9-1.3-.6-.5-1-1.2-1.3-1.9-.3-.7-.5-1.5-.5-2.3s.2-1.6.5-2.3c.3-.7.8-1.4,1.3-1.9.6-.5,1.2-1,1.9-1.3.7-.3,1.5-.5,2.3-.5s1.7.2,2.4.5c.8.3,1.4.7,2,1.3.6.5,1,1.2,1.3,1.9s.5,1.5.5,2.3ZM577.8,449.7v34h-10.2v-34h10.2Z"/>
    <path d="M586,483.7v-34h6.3c.6,0,1.2.1,1.6.4s.7.7.9,1.3l.6,1.8c.6-.6,1.2-1.1,1.8-1.6.6-.5,1.3-.9,2-1.3.7-.4,1.5-.6,2.3-.9.8-.2,1.7-.3,2.7-.3,2.1,0,3.8.5,5.1,1.6,1.3,1.1,2.4,2.5,3.1,4.2.6-1.1,1.3-1.9,2.1-2.7.8-.7,1.7-1.3,2.7-1.8,1-.5,2-.8,3-1,1.1-.2,2.1-.3,3.2-.3,1.9,0,3.7.3,5.2.9s2.8,1.4,3.8,2.5c1,1.1,1.8,2.5,2.3,4.1s.8,3.4.8,5.5v21.6h-10.2v-21.6c0-3.5-1.5-5.3-4.5-5.3s-2.5.5-3.4,1.4c-.9.9-1.4,2.2-1.4,3.9v21.6h-10.2v-21.6c0-1.9-.4-3.3-1.1-4.1-.8-.8-1.9-1.2-3.4-1.2s-1.8.2-2.6.6c-.8.4-1.6,1-2.3,1.7v24.6h-10.2Z"/>
    <path d="M642.5,494.5v-44.8h6.3c.6,0,1.2.1,1.6.4s.7.7.9,1.3l.8,2.5c.7-.7,1.4-1.4,2.1-2,.8-.6,1.6-1.1,2.4-1.5.9-.4,1.8-.8,2.8-1,1-.2,2.1-.4,3.3-.4,1.8,0,3.4.4,4.9,1.2,1.5.8,2.8,1.9,3.9,3.4,1.1,1.5,2,3.3,2.6,5.5.6,2.2.9,4.6.9,7.3s-.4,4.9-1.1,7.1c-.7,2.2-1.7,4-3,5.6s-2.8,2.8-4.6,3.7c-1.8.9-3.8,1.3-5.9,1.3s-3.3-.3-4.5-.8-2.3-1.2-3.3-2v13.1h-10.2ZM659.1,456.8c-.7,0-1.4,0-2,.2-.6.1-1.2.3-1.7.6-.5.3-1,.6-1.4,1-.4.4-.9.9-1.3,1.4v14.4c.8.9,1.6,1.5,2.5,1.8.9.3,1.8.5,2.8.5s1.8-.2,2.6-.6c.8-.4,1.5-1,2.1-1.8.6-.8,1-1.9,1.4-3.2s.5-2.9.5-4.8-.1-3.3-.4-4.5c-.3-1.2-.6-2.2-1.1-3s-1-1.3-1.7-1.6-1.4-.5-2.2-.5Z"/>
    <path d="M691,434.6v49.1h-10.2v-49.1h10.2Z"/>
    <path d="M710.8,440.3c0,.8-.2,1.6-.5,2.3s-.8,1.3-1.3,1.9c-.6.5-1.2,1-2,1.3s-1.6.5-2.4.5-1.6-.2-2.3-.5c-.7-.3-1.4-.7-1.9-1.3-.6-.5-1-1.2-1.3-1.9-.3-.7-.5-1.5-.5-2.3s.2-1.6.5-2.3c.3-.7.8-1.4,1.3-1.9.6-.5,1.2-1,1.9-1.3.7-.3,1.5-.5,2.3-.5s1.7.2,2.4.5c.8.3,1.4.7,2,1.3.6.5,1,1.2,1.3,1.9s.5,1.5.5,2.3ZM709.7,449.7v34h-10.2v-34h10.2Z"/>
    <path d="M719.4,483.7v-27l-2.2-.5c-.8-.2-1.4-.4-1.9-.8-.5-.4-.7-.9-.7-1.6v-4h4.8v-.5c0-2.1.4-4,1.1-5.8.7-1.8,1.8-3.4,3.3-4.8,1.5-1.3,3.4-2.4,5.7-3.2,2.3-.8,5.1-1.2,8.3-1.2s2,0,3.1.1c1.1,0,2,.2,2.7.4l-.3,5.2c0,.5-.3.9-.8,1.1-.5.2-1,.3-1.6.3-2.3,0-4.2.2-5.6.5-1.5.4-2.7.9-3.5,1.6-.9.7-1.5,1.5-1.8,2.6-.3,1-.5,2.2-.5,3.5v.2h21.6v34h-10.2v-27h-11.1v27h-10.2Z"/>
    <path d="M773.7,449.1c2.3,0,4.3.4,6.2,1.1,1.9.7,3.5,1.7,4.8,3.1,1.3,1.3,2.4,3,3.2,4.9s1.1,4.1,1.1,6.6,0,1.4,0,1.9c0,.5-.2.9-.4,1.1-.2.3-.4.5-.7.6-.3.1-.7.2-1.1.2h-19.6c.3,2.8,1.2,4.9,2.6,6.2,1.4,1.3,3.2,1.9,5.4,1.9s2.2-.1,3.1-.4c.9-.3,1.6-.6,2.3-1,.7-.4,1.3-.7,1.8-1,.6-.3,1.1-.4,1.8-.4s1.4.3,1.8.9l3,3.6c-1,1.2-2.2,2.2-3.4,2.9s-2.5,1.3-3.7,1.8-2.6.7-3.8.9c-1.3.2-2.5.2-3.7.2-2.4,0-4.6-.4-6.7-1.2-2.1-.8-3.9-1.9-5.5-3.5-1.6-1.5-2.8-3.4-3.7-5.7-.9-2.3-1.4-4.9-1.4-7.9s.4-4.4,1.2-6.5c.8-2,1.9-3.8,3.3-5.3,1.5-1.5,3.2-2.7,5.3-3.6,2.1-.9,4.4-1.3,7-1.3ZM773.9,456.2c-1.9,0-3.5.6-4.6,1.7-1.1,1.1-1.8,2.7-2.2,4.8h12.7c0-.8-.1-1.6-.3-2.4-.2-.8-.5-1.4-1-2.1s-1.1-1.1-1.9-1.5c-.8-.4-1.7-.6-2.8-.6Z"/>
    <path d="M818.7,483.7c-.6,0-1.2-.1-1.6-.4-.4-.3-.7-.7-.9-1.3l-.8-2.6c-.7.7-1.4,1.4-2.1,2-.7.6-1.5,1.1-2.4,1.5s-1.8.8-2.8,1c-1,.2-2.1.3-3.2.3-1.8,0-3.4-.4-4.9-1.2s-2.8-1.9-3.9-3.4c-1.1-1.5-2-3.3-2.6-5.5-.6-2.2-.9-4.6-.9-7.4s.4-4.9,1.1-7.1c.7-2.2,1.7-4.1,3-5.6,1.3-1.6,2.8-2.8,4.6-3.7,1.8-.9,3.8-1.3,5.9-1.3s3.2.3,4.4.8c1.2.5,2.3,1.2,3.3,2v-17.2h10.2v49.1h-6.3ZM808.4,476.4c.7,0,1.4,0,2-.2s1.2-.3,1.7-.6c.5-.3,1-.6,1.4-1,.4-.4.9-.9,1.3-1.4v-14.4c-.8-.9-1.6-1.4-2.5-1.8-.9-.3-1.8-.5-2.8-.5s-1.8.2-2.6.6c-.8.4-1.5,1-2.1,1.8-.6.8-1,1.9-1.4,3.2-.3,1.3-.5,2.9-.5,4.8s.1,3.3.4,4.5c.3,1.2.6,2.2,1.1,3s1,1.3,1.7,1.6,1.4.5,2.2.5Z"/>
    <path d="M830.9,478.5c0-.8.1-1.5.4-2.2.3-.7.7-1.3,1.2-1.8.5-.5,1.1-.9,1.8-1.2.7-.3,1.5-.4,2.3-.4s1.6.1,2.3.4c.7.3,1.3.7,1.8,1.2.5.5.9,1.1,1.2,1.8s.4,1.4.4,2.2-.1,1.5-.4,2.2c-.3.7-.7,1.3-1.2,1.8-.5.5-1.1.9-1.8,1.2-.7.3-1.5.4-2.3.4s-1.6-.1-2.3-.4-1.3-.7-1.8-1.2c-.5-.5-.9-1.1-1.2-1.8-.3-.7-.4-1.4-.4-2.2Z"/>
  </g>
</svg>