<svg xmlns="http://www.w3.org/2000/svg" fill="none" viewBox="0 0 24 24" id="Fastly--Streamline-Svg-Logos" height="24" width="24">
  <desc>
    Fastly Streamline Icon: https://streamlinehq.com
  </desc>
  <path fill="#ff282d" d="M20.629875 9.703725v0.91565h-0.60795l0.8955 2.20315 0.895525 -2.20315h-0.606675v-0.91565H23.75v0.9156h-0.608l-1.56005 3.838025c-0.4471 1.078125 -1.181475 2.092875 -2.299925 2.092875 -0.275 0 -0.641075 -0.030475 -0.89495 -0.09145l0.11155 -1.1194 0.0194 0.00355c0.006525 0.00115 0.013125 0.0023 0.0198 0.003425l0.02015 0.00335c0.003375 0.000525 0.006775 0.001075 0.0102 0.001625l0.020575 0.00315c0.00345 0.000525 0.0069 0.00105 0.010375 0.00155l0.0209 0.003c0.0035 0.0005 0.007 0.000975 0.0105 0.001475l0.031625 0.004175 0.02115 0.00265 0.0211 0.002525 0.021025 0.002375 0.020875 0.00225 0.0207 0.0021 0.02045 0.001975 0.020125 0.001825 0.019775 0.001675 0.019375 0.001525 0.0189 0.001375 0.018375 0.0012 0.017775 0.00105 0.017175 0.000875 0.016475 0.000725 0.015725 0.000525 0.014925 0.000375 0.014075 0.000175c0.002275 0.000025 0.0045 0.000025 0.0067 0.000025 0.518675 0 1.10375 -0.321375 1.286725 -0.8809l-1.5807 -3.889625h-0.608025v-0.91565h2.545025Zm-3.15365 -2.25395v6.1286h0.608625v0.936825h-1.841775V8.383725l-0.000175 -0.9338 1.233325 -0.00015Zm-15.1109125 0.000025c0.2747375 0 0.6004125 0.040575 0.8855375 0.091925l-0.169 1.00275 -0.0206 -0.003225 -0.029525 -0.004475 -0.018825 -0.00275 -0.02705 -0.0038 -0.025725 -0.003425 -0.024525 -0.00305 -0.01575 -0.00185 -0.022775 -0.002475 -0.021875 -0.0022 -0.01415 -0.001275 -0.01385 -0.001175 -0.020275 -0.001525 -0.013225 -0.000875 -0.019525 -0.0011 -0.012825 -0.000625 -0.012725 -0.00055 -0.019025 -0.000625c-0.0021 -0.000075 -0.0042 -0.000125 -0.006325 -0.000175l-0.01295 -0.0003c-0.011525 -0.000225 -0.0231 -0.000375 -0.034875 -0.000475l-0.024525 -0.000075 -0.01335 0.000025 -0.0261 0.0001c-0.004275 0.00005 -0.008525 0.000075 -0.01275 0.000125l-0.0249 0.0003 -0.02415 0.0005c-0.007925 0.000175 -0.0157 0.0004 -0.023375 0.00065l-0.022625 0.000825c-0.3264875 0.013875 -0.41424 0.094725 -0.41424 0.480075v0.712675H3.04v0.9165H2.109435v2.95815H2.729v0.9367l-2.47897 0.00025v-0.93695h0.6260575V10.620225H0.25v-0.813525l0.6260875 -0.10295v-0.823525c0 -0.997525 0.2171225 -1.430425 1.489225 -1.430425Zm3.8297625 1.298225v0.313225h-0.150475v0.4259h-0.00695c0.295875 0.0548 0.573825 0.16075 0.824125 0.30865l0.0144 0.008575v-0.359925h1.2333l0.0008 3.837875h0.2948v1.232875h-1.302725l-0.222175 -0.362675c-0.3815 0.229825 -0.828375 0.362225 -1.30625 0.362225 -1.400125 0 -2.535125 -1.135025 -2.535125 -2.53515 0 -1.22995 0.8761 -2.254625 2.038175 -2.4857l0.0353 -0.00675h-0.00855V9.06125h-0.15045v-0.313225h1.2418Zm-0.547275 1.925975v0.14575h-0.14775v-0.145325c-0.65205 0.038025 -1.17535 0.554675 -1.22385 1.20385l-0.0013 0.0197h0.1461v0.147775h-0.146875c0.0342 0.656375 0.55345 1.18415 1.2061 1.232075l0.019825 0.0013v-0.144575h0.14775v0.144975c0.64295 -0.03435 1.16205 -0.534125 1.226925 -1.1685l0.001825 -0.019275v-0.04045h-0.1481v-0.147775h0.14805v-0.04235c-0.056525 -0.643225 -0.579475 -1.15245 -1.2287 -1.187175Zm0.479575 0.6602 0.093875 0.0939 -0.42505 0.475225c0.006975 0.022725 0.010775 0.0469 0.010775 0.071975 0 0.132225 -0.10435 0.2394 -0.232925 0.2394 -0.1286 0 -0.232725 -0.107175 -0.232725 -0.2394 0 -0.132075 0.104125 -0.239275 0.232725 -0.239275 0.02445 0 0.04795 0.004075 0.070075 0.0113l0.0066 0.00225 0.47665 -0.415375Zm9.488325 1.948125c-0.0862 0.0182 -0.167575 0.027275 -0.2421 0.032025l-0.0211 0.00125 -0.020725 0.001025 -0.020325 0.00085 -0.019925 0.0007 -0.029125 0.000775 -0.018875 0.000375 -0.087575 0.001325 -0.0161 0.000325 -0.00785 0.000175c-0.3907 0.0096 -0.454575 -0.087075 -0.4633 -0.35045l-0.000575 -0.020875c-0.000225 -0.0106 -0.000375 -0.02145 -0.0005 -0.032575l-0.000125 -0.022575 -0.000025 -0.023275 0.000075 -0.023975 0.000775 -0.116775 0.0001 -0.042225v-2.0682h0.965825v-0.9165h-0.965825v-2.25395h-1.233325v5.49435c0 1.07875 0.266225 1.571075 1.4265 1.571075 0.16285 0 0.3618 -0.024825 0.556175 -0.057775l0.0364 -0.006275 0.036225 -0.006425 0.035975 -0.006575 0.035725 -0.006675c0.005925 -0.001125 0.011825 -0.00225 0.017725 -0.0034l0.035175 -0.0068 0.034725 -0.006875c0.00575 -0.00115 0.011475 -0.0023 0.0172 -0.00345l0.03395 -0.006925 0.0334 -0.0069 0.03275 -0.006875 0.03205 -0.006825 -0.183375 -1.1011ZM11.89555 10.61855v-0.164075c-0.008575 -0.001575 -0.01715 -0.0031 -0.025725 -0.0046l-0.0257 -0.004375 -0.025675 -0.004175c-0.012825 -0.00205 -0.025625 -0.004 -0.038425 -0.0059l-0.025525 -0.003675 -0.025475 -0.003525c-0.004225 -0.00055 -0.00845 -0.001125 -0.0127 -0.001675l-0.025325 -0.003225c-0.0042 -0.000525 -0.008425 -0.00105 -0.012625 -0.00155l-0.02515 -0.002975 -0.02505 -0.002825 -0.0249 -0.00265 -0.02475 -0.002475 -0.0246 -0.00235 -0.024425 -0.002175 -0.02425 -0.00205 -0.024025 -0.0019 -0.02385 -0.001775 -0.035325 -0.002425 -0.0348 -0.00215 -0.0342 -0.0019 -0.022475 -0.001125 -0.022175 -0.001025 -0.021875 -0.000925 -0.032225 -0.001225 -0.021075 -0.0007 -0.0411 -0.0012 -0.029875 -0.000675 -0.038475 -0.000725 -0.045775 -0.000575 -0.043025 -0.00035 -0.084025 -0.000175c-0.533775 0 -0.631675 0.26325 -0.64275 0.432825l-0.0006 0.0108 -0.000375 0.010525c-0.00005 0.001725 -0.0001 0.00345 -0.000125 0.00515l-0.000075 0.01005c0 0.233425 0.079625 0.359625 0.701425 0.495575l0.054525 0.01225 0.0545 0.012325c0.009075 0.002075 0.01815 0.004125 0.027225 0.0062l0.05435 0.0125c0.8416 0.19505 1.631075 0.45255 1.631075 1.50065 0 1.068775 -0.55005 1.620925 -1.707875 1.620925 -0.371875 0 -0.738475 -0.0383 -1.0826 -0.09425l-0.0429 -0.0071 -0.04265 -0.00725c-0.014175 -0.00245 -0.028325 -0.004925 -0.042425 -0.007425l-0.04215 -0.007575c-0.014 -0.00255 -0.02795 -0.005125 -0.041875 -0.007725l-0.041625 -0.007875 -0.0207 -0.003975 -0.0412 -0.008075 -0.0409 -0.008175c-0.0068 -0.001375 -0.013575 -0.00275 -0.02035 -0.004125l-0.04045 -0.008325 -0.04015 -0.008425 -0.039825 -0.008525 -0.039525 -0.008575 -0.039175 -0.00865c-0.0065 -0.00145 -0.012975 -0.0029 -0.01945 -0.00435l-0.038675 -0.00875 -0.038325 -0.008775 -0.03795 -0.008825 -0.0376 -0.00885 -0.0557 -0.0133 -0.05485 -0.0133 -0.03605 -0.00885 -0.05335 -0.01325 -0.052425 -0.0132c-0.00575 -0.00145 -0.011525 -0.0029 -0.01725 -0.00435v-0.921025h0.933925l-0.000525 0.163625 0.025675 0.00485c0.0257 0.004725 0.05145 0.0091 0.077225 0.013175l0.02575 0.003975c0.0043 0.00065 0.0086 0.001275 0.012875 0.0019l0.02575 0.00365c0.01285 0.0018 0.025725 0.0035 0.03855 0.005125l0.02565 0.0032 0.025575 0.002975 0.0255 0.002825c0.00425 0.00045 0.008475 0.0009 0.012725 0.00135l0.025375 0.00255c0.0042 0.000425 0.008425 0.000825 0.012625 0.001225l0.025225 0.0023 0.025075 0.002175 0.024925 0.002 0.0248 0.00185 0.024625 0.001725 0.02445 0.0016 0.02425 0.00145 0.02405 0.001325 0.0357 0.001775 0.023475 0.00105 0.02325 0.000925 0.034375 0.001225 0.033775 0.001025 0.033075 0.000825 0.03235 0.00065 0.041975 0.00065 0.040525 0.0004 0.05785 0.0003 0.079475 -0.000025 0.0768 -0.00015c0.6122 0 0.71125 -0.32915 0.71125 -0.50415 0 -0.2307 -0.15845 -0.3475 -0.666325 -0.458375l-0.032525 -0.007c-0.0165 -0.0035 -0.033375 -0.007 -0.050575 -0.010475 -1.081175 -0.18475 -1.9392 -0.55385 -1.9392 -1.652075 0 -1.039525 0.69525 -1.4473 1.8531 -1.4473 0.3059 0 0.583225 0.0185 0.841775 0.0497l0.039625 0.0049c0.0066 0.00085 0.01315 0.001675 0.019725 0.002525l0.0392 0.0052c0.0065 0.000875 0.013 0.001775 0.0195 0.002675l0.038775 0.005475 0.038525 0.00565 0.038275 0.00585c0.019075 0.00295 0.03805 0.005975 0.056925 0.00905l0.037675 0.006275 0.037425 0.0064c0.006225 0.0011 0.012425 0.002175 0.018625 0.003275l0.0371 0.00665 0.0369 0.0068c0.00615 0.00115 0.01225 0.0023 0.018375 0.00345l0.0366 0.007025c0.006075 0.001175 0.01215 0.00235 0.018225 0.00355l0.036325 0.007225 0.036125 0.007325 0.035975 0.007475c0.005975 0.00125 0.01195 0.002525 0.017925 0.0038l0.035725 0.00765c0.00595 0.001275 0.011875 0.002575 0.017825 0.00385l0.0355 0.007825 0.035375 0.007925 0.035225 0.00805 0.035125 0.008125 0.035025 0.0082 0.0349 0.008325 0.0348 0.008375 0.052025 0.01275 0.051875 0.012875 0.0345 0.0087c0.00575 0.00145 0.011475 0.0029 0.017225 0.00435v0.914825h-0.933725Z" stroke-width="0.25"></path>
</svg>