<?xml version='1.0'?>
<!--
Bitly Generated QR Code
v4
33x33
-->
<svg width='656' height='656'
xmlns='http://www.w3.org/2000/svg'
xmlns:xlink='http://www.w3.org/1999/xlink'>
	<g id='background' style='fill:#ffffff' >
<rect x="0" y="0" width="656" height="656" />
</g>
<g id='pips' style='fill:#000000' >
<path d="M248,64.8L248,64.8A7.2,7.2,0,0,1,255.2,72L255.2,72A7.2,7.2,0,0,1,248,79.2L248,79.2A7.2,7.2,0,0,1,240.8,72L240.8,72A7.2,7.2,0,0,1,248,64.8M280,64.8L280,64.8A7.2,7.2,0,0,1,287.2,72L287.2,72A7.2,7.2,0,0,1,280,79.2L280,79.2A7.2,7.2,0,0,1,272.8,72L272.8,72A7.2,7.2,0,0,1,280,64.8M328,64.8L328,64.8A7.2,7.2,0,0,1,335.2,72L335.2,72A7.2,7.2,0,0,1,328,79.2L328,79.2A7.2,7.2,0,0,1,320.8,72L320.8,72A7.2,7.2,0,0,1,328,64.8M376,64.8L384,64.8L392,64.8A7.2,7.2,0,0,1,399.2,72L399.2,72A7.2,7.2,0,0,1,392,79.2L384,79.2L376,79.2A7.2,7.2,0,0,1,368.8,72L368.8,72A7.2,7.2,0,0,1,376,64.8M424,64.8L424,64.8A7.2,7.2,0,0,1,431.2,72L431.2,72A7.2,7.2,0,0,1,424,79.2L424,79.2A7.2,7.2,0,0,1,416.8,72L416.8,72A7.2,7.2,0,0,1,424,64.8M456,64.8L456,64.8A7.2,7.2,0,0,1,463.2,72L463.2,72A7.2,7.2,0,0,1,456,79.2L456,79.2A7.2,7.2,0,0,1,448.8,72L448.8,72A7.2,7.2,0,0,1,456,64.8ZM216,80.8L224,80.8L240,80.8L248,80.8A7.2,7.2,0,0,1,255.2,88L255.2,88A7.2,7.2,0,0,1,248,95.2L240,95.2L224,95.2L216,95.2A7.2,7.2,0,0,1,208.8,88L208.8,88A7.2,7.2,0,0,1,216,80.8M296,80.8L304,80.8L320,80.8L336,80.8L352,80.8L360,80.8A7.2,7.2,0,0,1,367.2,88L367.2,88A7.2,7.2,0,0,1,360,95.2L352,95.2L336,95.2L320,95.2L304,95.2L296,95.2A7.2,7.2,0,0,1,288.8,88L288.8,88A7.2,7.2,0,0,1,296,80.8M392,80.8L400,80.8L416,80.8L424,80.8A7.2,7.2,0,0,1,431.2,88L431.2,88A7.2,7.2,0,0,1,424,95.2L416,95.2L400,95.2L392,95.2A7.2,7.2,0,0,1,384.8,88L384.8,88A7.2,7.2,0,0,1,392,80.8M456,80.8L456,80.8A7.2,7.2,0,0,1,463.2,88L463.2,88A7.2,7.2,0,0,1,456,95.2L456,95.2A7.2,7.2,0,0,1,448.8,88L448.8,88A7.2,7.2,0,0,1,456,80.8ZM200,96.8L208,96.8L224,96.8L240,96.8L256,96.8L272,96.8L280,96.8A7.2,7.2,0,0,1,287.2,104L287.2,104A7.2,7.2,0,0,1,280,111.2L272,111.2L256,111.2L240,111.2L224,111.2L208,111.2L200,111.2A7.2,7.2,0,0,1,192.8,104L192.8,104A7.2,7.2,0,0,1,200,96.8M312,96.8L312,96.8A7.2,7.2,0,0,1,319.2,104L319.2,104A7.2,7.2,0,0,1,312,111.2L312,111.2A7.2,7.2,0,0,1,304.8,104L304.8,104A7.2,7.2,0,0,1,312,96.8M344,96.8L352,96.8L368,96.8L376,96.8A7.2,7.2,0,0,1,383.2,104L383.2,104A7.2,7.2,0,0,1,376,111.2L368,111.2L352,111.2L344,111.2A7.2,7.2,0,0,1,336.8,104L336.8,104A7.2,7.2,0,0,1,344,96.8M408,96.8L408,96.8A7.2,7.2,0,0,1,415.2,104L415.2,104A7.2,7.2,0,0,1,408,111.2L408,111.2A7.2,7.2,0,0,1,400.8,104L400.8,104A7.2,7.2,0,0,1,408,96.8M440,96.8L448,96.8L456,96.8A7.2,7.2,0,0,1,463.2,104L463.2,104A7.2,7.2,0,0,1,456,111.2L448,111.2L440,111.2A7.2,7.2,0,0,1,432.8,104L432.8,104A7.2,7.2,0,0,1,440,96.8ZM200,112.8L200,112.8A7.2,7.2,0,0,1,207.2,120L207.2,120A7.2,7.2,0,0,1,200,127.2L200,127.2A7.2,7.2,0,0,1,192.8,120L192.8,120A7.2,7.2,0,0,1,200,112.8M264,112.8L264,112.8A7.2,7.2,0,0,1,271.2,120L271.2,120A7.2,7.2,0,0,1,264,127.2L264,127.2A7.2,7.2,0,0,1,256.8,120L256.8,120A7.2,7.2,0,0,1,264,112.8M296,112.8L304,112.8L320,112.8L336,112.8L352,112.8L360,112.8A7.2,7.2,0,0,1,367.2,120L367.2,120A7.2,7.2,0,0,1,360,127.2L352,127.2L336,127.2L320,127.2L304,127.2L296,127.2A7.2,7.2,0,0,1,288.8,120L288.8,120A7.2,7.2,0,0,1,296,112.8M408,112.8L416,112.8L432,112.8L448,112.8L456,112.8A7.2,7.2,0,0,1,463.2,120L463.2,120A7.2,7.2,0,0,1,456,127.2L448,127.2L432,127.2L416,127.2L408,127.2A7.2,7.2,0,0,1,400.8,120L400.8,120A7.2,7.2,0,0,1,408,112.8ZM232,128.8L232,128.8A7.2,7.2,0,0,1,239.2,136L239.2,136A7.2,7.2,0,0,1,232,143.2L232,143.2A7.2,7.2,0,0,1,224.8,136L224.8,136A7.2,7.2,0,0,1,232,128.8M280,128.8L288,128.8L304,128.8L312,128.8A7.2,7.2,0,0,1,319.2,136L319.2,136A7.2,7.2,0,0,1,312,143.2L304,143.2L288,143.2L280,143.2A7.2,7.2,0,0,1,272.8,136L272.8,136A7.2,7.2,0,0,1,280,128.8M344,128.8L352,128.8L360,128.8A7.2,7.2,0,0,1,367.2,136L367.2,136A7.2,7.2,0,0,1,360,143.2L352,143.2L344,143.2A7.2,7.2,0,0,1,336.8,136L336.8,136A7.2,7.2,0,0,1,344,128.8M392,128.8L400,128.8L416,128.8L432,128.8L440,128.8A7.2,7.2,0,0,1,447.2,136L447.2,136A7.2,7.2,0,0,1,440,143.2L432,143.2L416,143.2L400,143.2L392,143.2A7.2,7.2,0,0,1,384.8,136L384.8,136A7.2,7.2,0,0,1,392,128.8ZM216,144.8L216,144.8A7.2,7.2,0,0,1,223.2,152L223.2,152A7.2,7.2,0,0,1,216,159.2L216,159.2A7.2,7.2,0,0,1,208.8,152L208.8,152A7.2,7.2,0,0,1,216,144.8M264,144.8L272,144.8L288,144.8L304,144.8L320,144.8L328,144.8A7.2,7.2,0,0,1,335.2,152L335.2,152A7.2,7.2,0,0,1,328,159.2L320,159.2L304,159.2L288,159.2L272,159.2L264,159.2A7.2,7.2,0,0,1,256.8,152L256.8,152A7.2,7.2,0,0,1,264,144.8M360,144.8L368,144.8L376,144.8A7.2,7.2,0,0,1,383.2,152L383.2,152A7.2,7.2,0,0,1,376,159.2L368,159.2L360,159.2A7.2,7.2,0,0,1,352.8,152L352.8,152A7.2,7.2,0,0,1,360,144.8M408,144.8L416,144.8L424,144.8A7.2,7.2,0,0,1,431.2,152L431.2,152A7.2,7.2,0,0,1,424,159.2L416,159.2L408,159.2A7.2,7.2,0,0,1,400.8,152L400.8,152A7.2,7.2,0,0,1,408,144.8M456,144.8L456,144.8A7.2,7.2,0,0,1,463.2,152L463.2,152A7.2,7.2,0,0,1,456,159.2L456,159.2A7.2,7.2,0,0,1,448.8,152L448.8,152A7.2,7.2,0,0,1,456,144.8ZM200,160.8L200,160.8A7.2,7.2,0,0,1,207.2,168L207.2,168A7.2,7.2,0,0,1,200,175.2L200,175.2A7.2,7.2,0,0,1,192.8,168L192.8,168A7.2,7.2,0,0,1,200,160.8M232,160.8L232,160.8A7.2,7.2,0,0,1,239.2,168L239.2,168A7.2,7.2,0,0,1,232,175.2L232,175.2A7.2,7.2,0,0,1,224.8,168L224.8,168A7.2,7.2,0,0,1,232,160.8M264,160.8L264,160.8A7.2,7.2,0,0,1,271.2,168L271.2,168A7.2,7.2,0,0,1,264,175.2L264,175.2A7.2,7.2,0,0,1,256.8,168L256.8,168A7.2,7.2,0,0,1,264,160.8M296,160.8L296,160.8A7.2,7.2,0,0,1,303.2,168L303.2,168A7.2,7.2,0,0,1,296,175.2L296,175.2A7.2,7.2,0,0,1,288.8,168L288.8,168A7.2,7.2,0,0,1,296,160.8M328,160.8L328,160.8A7.2,7.2,0,0,1,335.2,168L335.2,168A7.2,7.2,0,0,1,328,175.2L328,175.2A7.2,7.2,0,0,1,320.8,168L320.8,168A7.2,7.2,0,0,1,328,160.8M360,160.8L360,160.8A7.2,7.2,0,0,1,367.2,168L367.2,168A7.2,7.2,0,0,1,360,175.2L360,175.2A7.2,7.2,0,0,1,352.8,168L352.8,168A7.2,7.2,0,0,1,360,160.8M392,160.8L392,160.8A7.2,7.2,0,0,1,399.2,168L399.2,168A7.2,7.2,0,0,1,392,175.2L392,175.2A7.2,7.2,0,0,1,384.8,168L384.8,168A7.2,7.2,0,0,1,392,160.8M424,160.8L424,160.8A7.2,7.2,0,0,1,431.2,168L431.2,168A7.2,7.2,0,0,1,424,175.2L424,175.2A7.2,7.2,0,0,1,416.8,168L416.8,168A7.2,7.2,0,0,1,424,160.8M456,160.8L456,160.8A7.2,7.2,0,0,1,463.2,168L463.2,168A7.2,7.2,0,0,1,456,175.2L456,175.2A7.2,7.2,0,0,1,448.8,168L448.8,168A7.2,7.2,0,0,1,456,160.8ZM216,176.8L224,176.8L240,176.8L248,176.8A7.2,7.2,0,0,1,255.2,184L255.2,184A7.2,7.2,0,0,1,248,191.2L240,191.2L224,191.2L216,191.2A7.2,7.2,0,0,1,208.8,184L208.8,184A7.2,7.2,0,0,1,216,176.8M280,176.8L280,176.8A7.2,7.2,0,0,1,287.2,184L287.2,184A7.2,7.2,0,0,1,280,191.2L280,191.2A7.2,7.2,0,0,1,272.8,184L272.8,184A7.2,7.2,0,0,1,280,176.8M312,176.8L312,176.8A7.2,7.2,0,0,1,319.2,184L319.2,184A7.2,7.2,0,0,1,312,191.2L312,191.2A7.2,7.2,0,0,1,304.8,184L304.8,184A7.2,7.2,0,0,1,312,176.8M344,176.8L352,176.8L360,176.8A7.2,7.2,0,0,1,367.2,184L367.2,184A7.2,7.2,0,0,1,360,191.2L352,191.2L344,191.2A7.2,7.2,0,0,1,336.8,184L336.8,184A7.2,7.2,0,0,1,344,176.8M392,176.8L392,176.8A7.2,7.2,0,0,1,399.2,184L399.2,184A7.2,7.2,0,0,1,392,191.2L392,191.2A7.2,7.2,0,0,1,384.8,184L384.8,184A7.2,7.2,0,0,1,392,176.8M440,176.8L440,176.8A7.2,7.2,0,0,1,447.2,184L447.2,184A7.2,7.2,0,0,1,440,191.2L440,191.2A7.2,7.2,0,0,1,432.8,184L432.8,184A7.2,7.2,0,0,1,440,176.8ZM120,192.8L128,192.8L136,192.8A7.2,7.2,0,0,1,143.2,200L143.2,200A7.2,7.2,0,0,1,136,207.2L128,207.2L120,207.2A7.2,7.2,0,0,1,112.8,200L112.8,200A7.2,7.2,0,0,1,120,192.8M168,192.8L176,192.8L184,192.8A7.2,7.2,0,0,1,191.2,200L191.2,200A7.2,7.2,0,0,1,184,207.2L176,207.2L168,207.2A7.2,7.2,0,0,1,160.8,200L160.8,200A7.2,7.2,0,0,1,168,192.8M216,192.8L216,192.8A7.2,7.2,0,0,1,223.2,200L223.2,200A7.2,7.2,0,0,1,216,207.2L216,207.2A7.2,7.2,0,0,1,208.8,200L208.8,200A7.2,7.2,0,0,1,216,192.8M264,192.8L264,192.8A7.2,7.2,0,0,1,271.2,200L271.2,200A7.2,7.2,0,0,1,264,207.2L264,207.2A7.2,7.2,0,0,1,256.8,200L256.8,200A7.2,7.2,0,0,1,264,192.8M312,192.8L320,192.8L328,192.8A7.2,7.2,0,0,1,335.2,200L335.2,200A7.2,7.2,0,0,1,328,207.2L320,207.2L312,207.2A7.2,7.2,0,0,1,304.8,200L304.8,200A7.2,7.2,0,0,1,312,192.8M360,192.8L368,192.8L384,192.8L392,192.8A7.2,7.2,0,0,1,399.2,200L399.2,200A7.2,7.2,0,0,1,392,207.2L384,207.2L368,207.2L360,207.2A7.2,7.2,0,0,1,352.8,200L352.8,200A7.2,7.2,0,0,1,360,192.8M424,192.8L432,192.8L440,192.8A7.2,7.2,0,0,1,447.2,200L447.2,200A7.2,7.2,0,0,1,440,207.2L432,207.2L424,207.2A7.2,7.2,0,0,1,416.8,200L416.8,200A7.2,7.2,0,0,1,424,192.8M536,192.8L544,192.8L552,192.8A7.2,7.2,0,0,1,559.2,200L559.2,200A7.2,7.2,0,0,1,552,207.2L544,207.2L536,207.2A7.2,7.2,0,0,1,528.8,200L528.8,200A7.2,7.2,0,0,1,536,192.8ZM88,208.8L88,208.8A7.2,7.2,0,0,1,95.2,216L95.2,216A7.2,7.2,0,0,1,88,223.2L88,223.2A7.2,7.2,0,0,1,80.8,216L80.8,216A7.2,7.2,0,0,1,88,208.8M120,208.8L120,208.8A7.2,7.2,0,0,1,127.2,216L127.2,216A7.2,7.2,0,0,1,120,223.2L120,223.2A7.2,7.2,0,0,1,112.8,216L112.8,216A7.2,7.2,0,0,1,120,208.8M152,208.8L152,208.8A7.2,7.2,0,0,1,159.2,216L159.2,216A7.2,7.2,0,0,1,152,223.2L152,223.2A7.2,7.2,0,0,1,144.8,216L144.8,216A7.2,7.2,0,0,1,152,208.8M200,208.8L208,208.8L216,208.8A7.2,7.2,0,0,1,223.2,216L223.2,216A7.2,7.2,0,0,1,216,223.2L208,223.2L200,223.2A7.2,7.2,0,0,1,192.8,216L192.8,216A7.2,7.2,0,0,1,200,208.8M248,208.8L248,208.8A7.2,7.2,0,0,1,255.2,216L255.2,216A7.2,7.2,0,0,1,248,223.2L248,223.2A7.2,7.2,0,0,1,240.8,216L240.8,216A7.2,7.2,0,0,1,248,208.8M280,208.8L288,208.8L296,208.8A7.2,7.2,0,0,1,303.2,216L303.2,216A7.2,7.2,0,0,1,296,223.2L288,223.2L280,223.2A7.2,7.2,0,0,1,272.8,216L272.8,216A7.2,7.2,0,0,1,280,208.8M344,208.8L344,208.8A7.2,7.2,0,0,1,351.2,216L351.2,216A7.2,7.2,0,0,1,344,223.2L344,223.2A7.2,7.2,0,0,1,336.8,216L336.8,216A7.2,7.2,0,0,1,344,208.8M440,208.8L440,208.8A7.2,7.2,0,0,1,447.2,216L447.2,216A7.2,7.2,0,0,1,440,223.2L440,223.2A7.2,7.2,0,0,1,432.8,216L432.8,216A7.2,7.2,0,0,1,440,208.8M472,208.8L472,208.8A7.2,7.2,0,0,1,479.2,216L479.2,216A7.2,7.2,0,0,1,472,223.2L472,223.2A7.2,7.2,0,0,1,464.8,216L464.8,216A7.2,7.2,0,0,1,472,208.8M504,208.8L512,208.8L528,208.8L544,208.8L552,208.8A7.2,7.2,0,0,1,559.2,216L559.2,216A7.2,7.2,0,0,1,552,223.2L544,223.2L528,223.2L512,223.2L504,223.2A7.2,7.2,0,0,1,496.8,216L496.8,216A7.2,7.2,0,0,1,504,208.8ZM120,224.8L120,224.8A7.2,7.2,0,0,1,127.2,232L127.2,232A7.2,7.2,0,0,1,120,239.2L120,239.2A7.2,7.2,0,0,1,112.8,232L112.8,232A7.2,7.2,0,0,1,120,224.8M152,224.8L160,224.8L168,224.8A7.2,7.2,0,0,1,175.2,232L175.2,232A7.2,7.2,0,0,1,168,239.2L160,239.2L152,239.2A7.2,7.2,0,0,1,144.8,232L144.8,232A7.2,7.2,0,0,1,152,224.8M200,224.8L200,224.8A7.2,7.2,0,0,1,207.2,232L207.2,232A7.2,7.2,0,0,1,200,239.2L200,239.2A7.2,7.2,0,0,1,192.8,232L192.8,232A7.2,7.2,0,0,1,200,224.8M232,224.8L232,224.8A7.2,7.2,0,0,1,239.2,232L239.2,232A7.2,7.2,0,0,1,232,239.2L232,239.2A7.2,7.2,0,0,1,224.8,232L224.8,232A7.2,7.2,0,0,1,232,224.8M280,224.8L280,224.8A7.2,7.2,0,0,1,287.2,232L287.2,232A7.2,7.2,0,0,1,280,239.2L280,239.2A7.2,7.2,0,0,1,272.8,232L272.8,232A7.2,7.2,0,0,1,280,224.8M312,224.8L312,224.8A7.2,7.2,0,0,1,319.2,232L319.2,232A7.2,7.2,0,0,1,312,239.2L312,239.2A7.2,7.2,0,0,1,304.8,232L304.8,232A7.2,7.2,0,0,1,312,224.8M360,224.8L368,224.8L384,224.8L400,224.8L408,224.8A7.2,7.2,0,0,1,415.2,232L415.2,232A7.2,7.2,0,0,1,408,239.2L400,239.2L384,239.2L368,239.2L360,239.2A7.2,7.2,0,0,1,352.8,232L352.8,232A7.2,7.2,0,0,1,360,224.8M440,224.8L440,224.8A7.2,7.2,0,0,1,447.2,232L447.2,232A7.2,7.2,0,0,1,440,239.2L440,239.2A7.2,7.2,0,0,1,432.8,232L432.8,232A7.2,7.2,0,0,1,440,224.8M472,224.8L472,224.8A7.2,7.2,0,0,1,479.2,232L479.2,232A7.2,7.2,0,0,1,472,239.2L472,239.2A7.2,7.2,0,0,1,464.8,232L464.8,232A7.2,7.2,0,0,1,472,224.8M504,224.8L504,224.8A7.2,7.2,0,0,1,511.2,232L511.2,232A7.2,7.2,0,0,1,504,239.2L504,239.2A7.2,7.2,0,0,1,496.8,232L496.8,232A7.2,7.2,0,0,1,504,224.8M536,224.8L536,224.8A7.2,7.2,0,0,1,543.2,232L543.2,232A7.2,7.2,0,0,1,536,239.2L536,239.2A7.2,7.2,0,0,1,528.8,232L528.8,232A7.2,7.2,0,0,1,536,224.8M568,224.8L576,224.8L584,224.8A7.2,7.2,0,0,1,591.2,232L591.2,232A7.2,7.2,0,0,1,584,239.2L576,239.2L568,239.2A7.2,7.2,0,0,1,560.8,232L560.8,232A7.2,7.2,0,0,1,568,224.8ZM104,240.8L112,240.8L128,240.8L144,240.8L152,240.8A7.2,7.2,0,0,1,159.2,248L159.2,248A7.2,7.2,0,0,1,152,255.2L144,255.2L128,255.2L112,255.2L104,255.2A7.2,7.2,0,0,1,96.8,248L96.8,248A7.2,7.2,0,0,1,104,240.8M216,240.8L224,240.8L232,240.8A7.2,7.2,0,0,1,239.2,248L239.2,248A7.2,7.2,0,0,1,232,255.2L224,255.2L216,255.2A7.2,7.2,0,0,1,208.8,248L208.8,248A7.2,7.2,0,0,1,216,240.8M264,240.8L264,240.8A7.2,7.2,0,0,1,271.2,248L271.2,248A7.2,7.2,0,0,1,264,255.2L264,255.2A7.2,7.2,0,0,1,256.8,248L256.8,248A7.2,7.2,0,0,1,264,240.8M312,240.8L312,240.8A7.2,7.2,0,0,1,319.2,248L319.2,248A7.2,7.2,0,0,1,312,255.2L312,255.2A7.2,7.2,0,0,1,304.8,248L304.8,248A7.2,7.2,0,0,1,312,240.8M344,240.8L344,240.8A7.2,7.2,0,0,1,351.2,248L351.2,248A7.2,7.2,0,0,1,344,255.2L344,255.2A7.2,7.2,0,0,1,336.8,248L336.8,248A7.2,7.2,0,0,1,344,240.8M376,240.8L384,240.8L392,240.8A7.2,7.2,0,0,1,399.2,248L399.2,248A7.2,7.2,0,0,1,392,255.2L384,255.2L376,255.2A7.2,7.2,0,0,1,368.8,248L368.8,248A7.2,7.2,0,0,1,376,240.8M488,240.8L496,240.8L512,240.8L520,240.8A7.2,7.2,0,0,1,527.2,248L527.2,248A7.2,7.2,0,0,1,520,255.2L512,255.2L496,255.2L488,255.2A7.2,7.2,0,0,1,480.8,248L480.8,248A7.2,7.2,0,0,1,488,240.8M552,240.8L552,240.8A7.2,7.2,0,0,1,559.2,248L559.2,248A7.2,7.2,0,0,1,552,255.2L552,255.2A7.2,7.2,0,0,1,544.8,248L544.8,248A7.2,7.2,0,0,1,552,240.8M584,240.8L584,240.8A7.2,7.2,0,0,1,591.2,248L591.2,248A7.2,7.2,0,0,1,584,255.2L584,255.2A7.2,7.2,0,0,1,576.8,248L576.8,248A7.2,7.2,0,0,1,584,240.8ZM72,256.8L80,256.8L88,256.8A7.2,7.2,0,0,1,95.2,264L95.2,264A7.2,7.2,0,0,1,88,271.2L80,271.2L72,271.2A7.2,7.2,0,0,1,64.8,264L64.8,264A7.2,7.2,0,0,1,72,256.8M120,256.8L120,256.8A7.2,7.2,0,0,1,127.2,264L127.2,264A7.2,7.2,0,0,1,120,271.2L120,271.2A7.2,7.2,0,0,1,112.8,264L112.8,264A7.2,7.2,0,0,1,120,256.8M168,256.8L168,256.8A7.2,7.2,0,0,1,175.2,264L175.2,264A7.2,7.2,0,0,1,168,271.2L168,271.2A7.2,7.2,0,0,1,160.8,264L160.8,264A7.2,7.2,0,0,1,168,256.8M200,256.8L208,256.8L216,256.8A7.2,7.2,0,0,1,223.2,264L223.2,264A7.2,7.2,0,0,1,216,271.2L208,271.2L200,271.2A7.2,7.2,0,0,1,192.8,264L192.8,264A7.2,7.2,0,0,1,200,256.8M248,256.8L256,256.8L272,256.8L288,256.8L304,256.8L312,256.8A7.2,7.2,0,0,1,319.2,264L319.2,264A7.2,7.2,0,0,1,312,271.2L304,271.2L288,271.2L272,271.2L256,271.2L248,271.2A7.2,7.2,0,0,1,240.8,264L240.8,264A7.2,7.2,0,0,1,248,256.8M360,256.8L360,256.8A7.2,7.2,0,0,1,367.2,264L367.2,264A7.2,7.2,0,0,1,360,271.2L360,271.2A7.2,7.2,0,0,1,352.8,264L352.8,264A7.2,7.2,0,0,1,360,256.8M408,256.8L416,256.8L424,256.8A7.2,7.2,0,0,1,431.2,264L431.2,264A7.2,7.2,0,0,1,424,271.2L416,271.2L408,271.2A7.2,7.2,0,0,1,400.8,264L400.8,264A7.2,7.2,0,0,1,408,256.8M456,256.8L456,256.8A7.2,7.2,0,0,1,463.2,264L463.2,264A7.2,7.2,0,0,1,456,271.2L456,271.2A7.2,7.2,0,0,1,448.8,264L448.8,264A7.2,7.2,0,0,1,456,256.8M488,256.8L488,256.8A7.2,7.2,0,0,1,495.2,264L495.2,264A7.2,7.2,0,0,1,488,271.2L488,271.2A7.2,7.2,0,0,1,480.8,264L480.8,264A7.2,7.2,0,0,1,488,256.8M520,256.8L528,256.8L536,256.8A7.2,7.2,0,0,1,543.2,264L543.2,264A7.2,7.2,0,0,1,536,271.2L528,271.2L520,271.2A7.2,7.2,0,0,1,512.8,264L512.8,264A7.2,7.2,0,0,1,520,256.8M568,256.8L576,256.8L584,256.8A7.2,7.2,0,0,1,591.2,264L591.2,264A7.2,7.2,0,0,1,584,271.2L576,271.2L568,271.2A7.2,7.2,0,0,1,560.8,264L560.8,264A7.2,7.2,0,0,1,568,256.8ZM72,272.8L72,272.8A7.2,7.2,0,0,1,79.2,280L79.2,280A7.2,7.2,0,0,1,72,287.2L72,287.2A7.2,7.2,0,0,1,64.8,280L64.8,280A7.2,7.2,0,0,1,72,272.8M120,272.8L128,272.8L144,272.8L152,272.8A7.2,7.2,0,0,1,159.2,280L159.2,280A7.2,7.2,0,0,1,152,287.2L144,287.2L128,287.2L120,287.2A7.2,7.2,0,0,1,112.8,280L112.8,280A7.2,7.2,0,0,1,120,272.8M216,272.8L224,272.8L240,272.8L248,272.8A7.2,7.2,0,0,1,255.2,280L255.2,280A7.2,7.2,0,0,1,248,287.2L240,287.2L224,287.2L216,287.2A7.2,7.2,0,0,1,208.8,280L208.8,280A7.2,7.2,0,0,1,216,272.8M280,272.8L288,272.8L304,272.8L312,272.8A7.2,7.2,0,0,1,319.2,280L319.2,280A7.2,7.2,0,0,1,312,287.2L304,287.2L288,287.2L280,287.2A7.2,7.2,0,0,1,272.8,280L272.8,280A7.2,7.2,0,0,1,280,272.8M376,272.8L376,272.8A7.2,7.2,0,0,1,383.2,280L383.2,280A7.2,7.2,0,0,1,376,287.2L376,287.2A7.2,7.2,0,0,1,368.8,280L368.8,280A7.2,7.2,0,0,1,376,272.8M408,272.8L416,272.8L432,272.8L448,272.8L464,272.8L472,272.8A7.2,7.2,0,0,1,479.2,280L479.2,280A7.2,7.2,0,0,1,472,287.2L464,287.2L448,287.2L432,287.2L416,287.2L408,287.2A7.2,7.2,0,0,1,400.8,280L400.8,280A7.2,7.2,0,0,1,408,272.8M552,272.8L560,272.8L568,272.8A7.2,7.2,0,0,1,575.2,280L575.2,280A7.2,7.2,0,0,1,568,287.2L560,287.2L552,287.2A7.2,7.2,0,0,1,544.8,280L544.8,280A7.2,7.2,0,0,1,552,272.8ZM72,288.8L80,288.8L88,288.8A7.2,7.2,0,0,1,95.2,296L95.2,296A7.2,7.2,0,0,1,88,303.2L80,303.2L72,303.2A7.2,7.2,0,0,1,64.8,296L64.8,296A7.2,7.2,0,0,1,72,288.8M120,288.8L128,288.8L136,288.8A7.2,7.2,0,0,1,143.2,296L143.2,296A7.2,7.2,0,0,1,136,303.2L128,303.2L120,303.2A7.2,7.2,0,0,1,112.8,296L112.8,296A7.2,7.2,0,0,1,120,288.8M168,288.8L176,288.8L184,288.8A7.2,7.2,0,0,1,191.2,296L191.2,296A7.2,7.2,0,0,1,184,303.2L176,303.2L168,303.2A7.2,7.2,0,0,1,160.8,296L160.8,296A7.2,7.2,0,0,1,168,288.8M232,288.8L232,288.8A7.2,7.2,0,0,1,239.2,296L239.2,296A7.2,7.2,0,0,1,232,303.2L232,303.2A7.2,7.2,0,0,1,224.8,296L224.8,296A7.2,7.2,0,0,1,232,288.8M264,288.8L272,288.8L288,288.8L296,288.8A7.2,7.2,0,0,1,303.2,296L303.2,296A7.2,7.2,0,0,1,296,303.2L288,303.2L272,303.2L264,303.2A7.2,7.2,0,0,1,256.8,296L256.8,296A7.2,7.2,0,0,1,264,288.8M360,288.8L360,288.8A7.2,7.2,0,0,1,367.2,296L367.2,296A7.2,7.2,0,0,1,360,303.2L360,303.2A7.2,7.2,0,0,1,352.8,296L352.8,296A7.2,7.2,0,0,1,360,288.8M392,288.8L392,288.8A7.2,7.2,0,0,1,399.2,296L399.2,296A7.2,7.2,0,0,1,392,303.2L392,303.2A7.2,7.2,0,0,1,384.8,296L384.8,296A7.2,7.2,0,0,1,392,288.8M488,288.8L488,288.8A7.2,7.2,0,0,1,495.2,296L495.2,296A7.2,7.2,0,0,1,488,303.2L488,303.2A7.2,7.2,0,0,1,480.8,296L480.8,296A7.2,7.2,0,0,1,488,288.8M520,288.8L520,288.8A7.2,7.2,0,0,1,527.2,296L527.2,296A7.2,7.2,0,0,1,520,303.2L520,303.2A7.2,7.2,0,0,1,512.8,296L512.8,296A7.2,7.2,0,0,1,520,288.8ZM104,304.8L104,304.8A7.2,7.2,0,0,1,111.2,312L111.2,312A7.2,7.2,0,0,1,104,319.2L104,319.2A7.2,7.2,0,0,1,96.8,312L96.8,312A7.2,7.2,0,0,1,104,304.8M136,304.8L136,304.8A7.2,7.2,0,0,1,143.2,312L143.2,312A7.2,7.2,0,0,1,136,319.2L136,319.2A7.2,7.2,0,0,1,128.8,312L128.8,312A7.2,7.2,0,0,1,136,304.8M184,304.8L192,304.8L208,304.8L216,304.8A7.2,7.2,0,0,1,223.2,312L223.2,312A7.2,7.2,0,0,1,216,319.2L208,319.2L192,319.2L184,319.2A7.2,7.2,0,0,1,176.8,312L176.8,312A7.2,7.2,0,0,1,184,304.8M312,304.8L320,304.8L336,304.8L352,304.8L368,304.8L376,304.8A7.2,7.2,0,0,1,383.2,312L383.2,312A7.2,7.2,0,0,1,376,319.2L368,319.2L352,319.2L336,319.2L320,319.2L312,319.2A7.2,7.2,0,0,1,304.8,312L304.8,312A7.2,7.2,0,0,1,312,304.8M456,304.8L464,304.8L472,304.8A7.2,7.2,0,0,1,479.2,312L479.2,312A7.2,7.2,0,0,1,472,319.2L464,319.2L456,319.2A7.2,7.2,0,0,1,448.8,312L448.8,312A7.2,7.2,0,0,1,456,304.8M520,304.8L520,304.8A7.2,7.2,0,0,1,527.2,312L527.2,312A7.2,7.2,0,0,1,520,319.2L520,319.2A7.2,7.2,0,0,1,512.8,312L512.8,312A7.2,7.2,0,0,1,520,304.8M552,304.8L560,304.8L568,304.8A7.2,7.2,0,0,1,575.2,312L575.2,312A7.2,7.2,0,0,1,568,319.2L560,319.2L552,319.2A7.2,7.2,0,0,1,544.8,312L544.8,312A7.2,7.2,0,0,1,552,304.8ZM152,320.8L160,320.8L176,320.8L184,320.8A7.2,7.2,0,0,1,191.2,328L191.2,328A7.2,7.2,0,0,1,184,335.2L176,335.2L160,335.2L152,335.2A7.2,7.2,0,0,1,144.8,328L144.8,328A7.2,7.2,0,0,1,152,320.8M216,320.8L224,320.8L232,320.8A7.2,7.2,0,0,1,239.2,328L239.2,328A7.2,7.2,0,0,1,232,335.2L224,335.2L216,335.2A7.2,7.2,0,0,1,208.8,328L208.8,328A7.2,7.2,0,0,1,216,320.8M264,320.8L264,320.8A7.2,7.2,0,0,1,271.2,328L271.2,328A7.2,7.2,0,0,1,264,335.2L264,335.2A7.2,7.2,0,0,1,256.8,328L256.8,328A7.2,7.2,0,0,1,264,320.8M312,320.8L312,320.8A7.2,7.2,0,0,1,319.2,328L319.2,328A7.2,7.2,0,0,1,312,335.2L312,335.2A7.2,7.2,0,0,1,304.8,328L304.8,328A7.2,7.2,0,0,1,312,320.8M472,320.8L480,320.8L496,320.8L504,320.8A7.2,7.2,0,0,1,511.2,328L511.2,328A7.2,7.2,0,0,1,504,335.2L496,335.2L480,335.2L472,335.2A7.2,7.2,0,0,1,464.8,328L464.8,328A7.2,7.2,0,0,1,472,320.8M536,320.8L544,320.8L552,320.8A7.2,7.2,0,0,1,559.2,328L559.2,328A7.2,7.2,0,0,1,552,335.2L544,335.2L536,335.2A7.2,7.2,0,0,1,528.8,328L528.8,328A7.2,7.2,0,0,1,536,320.8ZM88,336.8L96,336.8L104,336.8A7.2,7.2,0,0,1,111.2,344L111.2,344A7.2,7.2,0,0,1,104,351.2L96,351.2L88,351.2A7.2,7.2,0,0,1,80.8,344L80.8,344A7.2,7.2,0,0,1,88,336.8M136,336.8L136,336.8A7.2,7.2,0,0,1,143.2,344L143.2,344A7.2,7.2,0,0,1,136,351.2L136,351.2A7.2,7.2,0,0,1,128.8,344L128.8,344A7.2,7.2,0,0,1,136,336.8M184,336.8L184,336.8A7.2,7.2,0,0,1,191.2,344L191.2,344A7.2,7.2,0,0,1,184,351.2L184,351.2A7.2,7.2,0,0,1,176.8,344L176.8,344A7.2,7.2,0,0,1,184,336.8M216,336.8L224,336.8L232,336.8A7.2,7.2,0,0,1,239.2,344L239.2,344A7.2,7.2,0,0,1,232,351.2L224,351.2L216,351.2A7.2,7.2,0,0,1,208.8,344L208.8,344A7.2,7.2,0,0,1,216,336.8M264,336.8L272,336.8L288,336.8L296,336.8A7.2,7.2,0,0,1,303.2,344L303.2,344A7.2,7.2,0,0,1,296,351.2L288,351.2L272,351.2L264,351.2A7.2,7.2,0,0,1,256.8,344L256.8,344A7.2,7.2,0,0,1,264,336.8M328,336.8L328,336.8A7.2,7.2,0,0,1,335.2,344L335.2,344A7.2,7.2,0,0,1,328,351.2L328,351.2A7.2,7.2,0,0,1,320.8,344L320.8,344A7.2,7.2,0,0,1,328,336.8M360,336.8L360,336.8A7.2,7.2,0,0,1,367.2,344L367.2,344A7.2,7.2,0,0,1,360,351.2L360,351.2A7.2,7.2,0,0,1,352.8,344L352.8,344A7.2,7.2,0,0,1,360,336.8M392,336.8L392,336.8A7.2,7.2,0,0,1,399.2,344L399.2,344A7.2,7.2,0,0,1,392,351.2L392,351.2A7.2,7.2,0,0,1,384.8,344L384.8,344A7.2,7.2,0,0,1,392,336.8M424,336.8L424,336.8A7.2,7.2,0,0,1,431.2,344L431.2,344A7.2,7.2,0,0,1,424,351.2L424,351.2A7.2,7.2,0,0,1,416.8,344L416.8,344A7.2,7.2,0,0,1,424,336.8M456,336.8L456,336.8A7.2,7.2,0,0,1,463.2,344L463.2,344A7.2,7.2,0,0,1,456,351.2L456,351.2A7.2,7.2,0,0,1,448.8,344L448.8,344A7.2,7.2,0,0,1,456,336.8M488,336.8L496,336.8L512,336.8L528,336.8L536,336.8A7.2,7.2,0,0,1,543.2,344L543.2,344A7.2,7.2,0,0,1,536,351.2L528,351.2L512,351.2L496,351.2L488,351.2A7.2,7.2,0,0,1,480.8,344L480.8,344A7.2,7.2,0,0,1,488,336.8M568,336.8L576,336.8L584,336.8A7.2,7.2,0,0,1,591.2,344L591.2,344A7.2,7.2,0,0,1,584,351.2L576,351.2L568,351.2A7.2,7.2,0,0,1,560.8,344L560.8,344A7.2,7.2,0,0,1,568,336.8ZM88,352.8L96,352.8L104,352.8A7.2,7.2,0,0,1,111.2,360L111.2,360A7.2,7.2,0,0,1,104,367.2L96,367.2L88,367.2A7.2,7.2,0,0,1,80.8,360L80.8,360A7.2,7.2,0,0,1,88,352.8M136,352.8L136,352.8A7.2,7.2,0,0,1,143.2,360L143.2,360A7.2,7.2,0,0,1,136,367.2L136,367.2A7.2,7.2,0,0,1,128.8,360L128.8,360A7.2,7.2,0,0,1,136,352.8M168,352.8L176,352.8L184,352.8A7.2,7.2,0,0,1,191.2,360L191.2,360A7.2,7.2,0,0,1,184,367.2L176,367.2L168,367.2A7.2,7.2,0,0,1,160.8,360L160.8,360A7.2,7.2,0,0,1,168,352.8M216,352.8L224,352.8L232,352.8A7.2,7.2,0,0,1,239.2,360L239.2,360A7.2,7.2,0,0,1,232,367.2L224,367.2L216,367.2A7.2,7.2,0,0,1,208.8,360L208.8,360A7.2,7.2,0,0,1,216,352.8M280,352.8L280,352.8A7.2,7.2,0,0,1,287.2,360L287.2,360A7.2,7.2,0,0,1,280,367.2L280,367.2A7.2,7.2,0,0,1,272.8,360L272.8,360A7.2,7.2,0,0,1,280,352.8M312,352.8L312,352.8A7.2,7.2,0,0,1,319.2,360L319.2,360A7.2,7.2,0,0,1,312,367.2L312,367.2A7.2,7.2,0,0,1,304.8,360L304.8,360A7.2,7.2,0,0,1,312,352.8M344,352.8L344,352.8A7.2,7.2,0,0,1,351.2,360L351.2,360A7.2,7.2,0,0,1,344,367.2L344,367.2A7.2,7.2,0,0,1,336.8,360L336.8,360A7.2,7.2,0,0,1,344,352.8M408,352.8L408,352.8A7.2,7.2,0,0,1,415.2,360L415.2,360A7.2,7.2,0,0,1,408,367.2L408,367.2A7.2,7.2,0,0,1,400.8,360L400.8,360A7.2,7.2,0,0,1,408,352.8M440,352.8L440,352.8A7.2,7.2,0,0,1,447.2,360L447.2,360A7.2,7.2,0,0,1,440,367.2L440,367.2A7.2,7.2,0,0,1,432.8,360L432.8,360A7.2,7.2,0,0,1,440,352.8M504,352.8L504,352.8A7.2,7.2,0,0,1,511.2,360L511.2,360A7.2,7.2,0,0,1,504,367.2L504,367.2A7.2,7.2,0,0,1,496.8,360L496.8,360A7.2,7.2,0,0,1,504,352.8M536,352.8L544,352.8L552,352.8A7.2,7.2,0,0,1,559.2,360L559.2,360A7.2,7.2,0,0,1,552,367.2L544,367.2L536,367.2A7.2,7.2,0,0,1,528.8,360L528.8,360A7.2,7.2,0,0,1,536,352.8M584,352.8L584,352.8A7.2,7.2,0,0,1,591.2,360L591.2,360A7.2,7.2,0,0,1,584,367.2L584,367.2A7.2,7.2,0,0,1,576.8,360L576.8,360A7.2,7.2,0,0,1,584,352.8ZM72,368.8L72,368.8A7.2,7.2,0,0,1,79.2,376L79.2,376A7.2,7.2,0,0,1,72,383.2L72,383.2A7.2,7.2,0,0,1,64.8,376L64.8,376A7.2,7.2,0,0,1,72,368.8M104,368.8L112,368.8L128,368.8L136,368.8A7.2,7.2,0,0,1,143.2,376L143.2,376A7.2,7.2,0,0,1,136,383.2L128,383.2L112,383.2L104,383.2A7.2,7.2,0,0,1,96.8,376L96.8,376A7.2,7.2,0,0,1,104,368.8M184,368.8L184,368.8A7.2,7.2,0,0,1,191.2,376L191.2,376A7.2,7.2,0,0,1,184,383.2L184,383.2A7.2,7.2,0,0,1,176.8,376L176.8,376A7.2,7.2,0,0,1,184,368.8M216,368.8L216,368.8A7.2,7.2,0,0,1,223.2,376L223.2,376A7.2,7.2,0,0,1,216,383.2L216,383.2A7.2,7.2,0,0,1,208.8,376L208.8,376A7.2,7.2,0,0,1,216,368.8M264,368.8L264,368.8A7.2,7.2,0,0,1,271.2,376L271.2,376A7.2,7.2,0,0,1,264,383.2L264,383.2A7.2,7.2,0,0,1,256.8,376L256.8,376A7.2,7.2,0,0,1,264,368.8M296,368.8L296,368.8A7.2,7.2,0,0,1,303.2,376L303.2,376A7.2,7.2,0,0,1,296,383.2L296,383.2A7.2,7.2,0,0,1,288.8,376L288.8,376A7.2,7.2,0,0,1,296,368.8M328,368.8L336,368.8L352,368.8L368,368.8L384,368.8L392,368.8A7.2,7.2,0,0,1,399.2,376L399.2,376A7.2,7.2,0,0,1,392,383.2L384,383.2L368,383.2L352,383.2L336,383.2L328,383.2A7.2,7.2,0,0,1,320.8,376L320.8,376A7.2,7.2,0,0,1,328,368.8M440,368.8L448,368.8L464,368.8L472,368.8A7.2,7.2,0,0,1,479.2,376L479.2,376A7.2,7.2,0,0,1,472,383.2L464,383.2L448,383.2L440,383.2A7.2,7.2,0,0,1,432.8,376L432.8,376A7.2,7.2,0,0,1,440,368.8M504,368.8L504,368.8A7.2,7.2,0,0,1,511.2,376L511.2,376A7.2,7.2,0,0,1,504,383.2L504,383.2A7.2,7.2,0,0,1,496.8,376L496.8,376A7.2,7.2,0,0,1,504,368.8M536,368.8L544,368.8L552,368.8A7.2,7.2,0,0,1,559.2,376L559.2,376A7.2,7.2,0,0,1,552,383.2L544,383.2L536,383.2A7.2,7.2,0,0,1,528.8,376L528.8,376A7.2,7.2,0,0,1,536,368.8M584,368.8L584,368.8A7.2,7.2,0,0,1,591.2,376L591.2,376A7.2,7.2,0,0,1,584,383.2L584,383.2A7.2,7.2,0,0,1,576.8,376L576.8,376A7.2,7.2,0,0,1,584,368.8ZM72,384.8L72,384.8A7.2,7.2,0,0,1,79.2,392L79.2,392A7.2,7.2,0,0,1,72,399.2L72,399.2A7.2,7.2,0,0,1,64.8,392L64.8,392A7.2,7.2,0,0,1,72,384.8M104,384.8L112,384.8L128,384.8L144,384.8L160,384.8L168,384.8A7.2,7.2,0,0,1,175.2,392L175.2,392A7.2,7.2,0,0,1,168,399.2L160,399.2L144,399.2L128,399.2L112,399.2L104,399.2A7.2,7.2,0,0,1,96.8,392L96.8,392A7.2,7.2,0,0,1,104,384.8M200,384.8L208,384.8L216,384.8A7.2,7.2,0,0,1,223.2,392L223.2,392A7.2,7.2,0,0,1,216,399.2L208,399.2L200,399.2A7.2,7.2,0,0,1,192.8,392L192.8,392A7.2,7.2,0,0,1,200,384.8M264,384.8L264,384.8A7.2,7.2,0,0,1,271.2,392L271.2,392A7.2,7.2,0,0,1,264,399.2L264,399.2A7.2,7.2,0,0,1,256.8,392L256.8,392A7.2,7.2,0,0,1,264,384.8M296,384.8L304,384.8L320,384.8L336,384.8L344,384.8A7.2,7.2,0,0,1,351.2,392L351.2,392A7.2,7.2,0,0,1,344,399.2L336,399.2L320,399.2L304,399.2L296,399.2A7.2,7.2,0,0,1,288.8,392L288.8,392A7.2,7.2,0,0,1,296,384.8M392,384.8L392,384.8A7.2,7.2,0,0,1,399.2,392L399.2,392A7.2,7.2,0,0,1,392,399.2L392,399.2A7.2,7.2,0,0,1,384.8,392L384.8,392A7.2,7.2,0,0,1,392,384.8M424,384.8L424,384.8A7.2,7.2,0,0,1,431.2,392L431.2,392A7.2,7.2,0,0,1,424,399.2L424,399.2A7.2,7.2,0,0,1,416.8,392L416.8,392A7.2,7.2,0,0,1,424,384.8M488,384.8L496,384.8L504,384.8A7.2,7.2,0,0,1,511.2,392L511.2,392A7.2,7.2,0,0,1,504,399.2L496,399.2L488,399.2A7.2,7.2,0,0,1,480.8,392L480.8,392A7.2,7.2,0,0,1,488,384.8M536,384.8L536,384.8A7.2,7.2,0,0,1,543.2,392L543.2,392A7.2,7.2,0,0,1,536,399.2L536,399.2A7.2,7.2,0,0,1,528.8,392L528.8,392A7.2,7.2,0,0,1,536,384.8M568,384.8L568,384.8A7.2,7.2,0,0,1,575.2,392L575.2,392A7.2,7.2,0,0,1,568,399.2L568,399.2A7.2,7.2,0,0,1,560.8,392L560.8,392A7.2,7.2,0,0,1,568,384.8ZM72,400.8L80,400.8L88,400.8A7.2,7.2,0,0,1,95.2,408L95.2,408A7.2,7.2,0,0,1,88,415.2L80,415.2L72,415.2A7.2,7.2,0,0,1,64.8,408L64.8,408A7.2,7.2,0,0,1,72,400.8M120,400.8L120,400.8A7.2,7.2,0,0,1,127.2,408L127.2,408A7.2,7.2,0,0,1,120,415.2L120,415.2A7.2,7.2,0,0,1,112.8,408L112.8,408A7.2,7.2,0,0,1,120,400.8M184,400.8L184,400.8A7.2,7.2,0,0,1,191.2,408L191.2,408A7.2,7.2,0,0,1,184,415.2L184,415.2A7.2,7.2,0,0,1,176.8,408L176.8,408A7.2,7.2,0,0,1,184,400.8M216,400.8L216,400.8A7.2,7.2,0,0,1,223.2,408L223.2,408A7.2,7.2,0,0,1,216,415.2L216,415.2A7.2,7.2,0,0,1,208.8,408L208.8,408A7.2,7.2,0,0,1,216,400.8M248,400.8L256,400.8L272,400.8L280,400.8A7.2,7.2,0,0,1,287.2,408L287.2,408A7.2,7.2,0,0,1,280,415.2L272,415.2L256,415.2L248,415.2A7.2,7.2,0,0,1,240.8,408L240.8,408A7.2,7.2,0,0,1,248,400.8M312,400.8L320,400.8L328,400.8A7.2,7.2,0,0,1,335.2,408L335.2,408A7.2,7.2,0,0,1,328,415.2L320,415.2L312,415.2A7.2,7.2,0,0,1,304.8,408L304.8,408A7.2,7.2,0,0,1,312,400.8M376,400.8L376,400.8A7.2,7.2,0,0,1,383.2,408L383.2,408A7.2,7.2,0,0,1,376,415.2L376,415.2A7.2,7.2,0,0,1,368.8,408L368.8,408A7.2,7.2,0,0,1,376,400.8M408,400.8L408,400.8A7.2,7.2,0,0,1,415.2,408L415.2,408A7.2,7.2,0,0,1,408,415.2L408,415.2A7.2,7.2,0,0,1,400.8,408L400.8,408A7.2,7.2,0,0,1,408,400.8M456,400.8L456,400.8A7.2,7.2,0,0,1,463.2,408L463.2,408A7.2,7.2,0,0,1,456,415.2L456,415.2A7.2,7.2,0,0,1,448.8,408L448.8,408A7.2,7.2,0,0,1,456,400.8M488,400.8L488,400.8A7.2,7.2,0,0,1,495.2,408L495.2,408A7.2,7.2,0,0,1,488,415.2L488,415.2A7.2,7.2,0,0,1,480.8,408L480.8,408A7.2,7.2,0,0,1,488,400.8M520,400.8L520,400.8A7.2,7.2,0,0,1,527.2,408L527.2,408A7.2,7.2,0,0,1,520,415.2L520,415.2A7.2,7.2,0,0,1,512.8,408L512.8,408A7.2,7.2,0,0,1,520,400.8M584,400.8L584,400.8A7.2,7.2,0,0,1,591.2,408L591.2,408A7.2,7.2,0,0,1,584,415.2L584,415.2A7.2,7.2,0,0,1,576.8,408L576.8,408A7.2,7.2,0,0,1,584,400.8ZM72,416.8L72,416.8A7.2,7.2,0,0,1,79.2,424L79.2,424A7.2,7.2,0,0,1,72,431.2L72,431.2A7.2,7.2,0,0,1,64.8,424L64.8,424A7.2,7.2,0,0,1,72,416.8M120,416.8L120,416.8A7.2,7.2,0,0,1,127.2,424L127.2,424A7.2,7.2,0,0,1,120,431.2L120,431.2A7.2,7.2,0,0,1,112.8,424L112.8,424A7.2,7.2,0,0,1,120,416.8M152,416.8L160,416.8L176,416.8L192,416.8L200,416.8A7.2,7.2,0,0,1,207.2,424L207.2,424A7.2,7.2,0,0,1,200,431.2L192,431.2L176,431.2L160,431.2L152,431.2A7.2,7.2,0,0,1,144.8,424L144.8,424A7.2,7.2,0,0,1,152,416.8M264,416.8L272,416.8L280,416.8A7.2,7.2,0,0,1,287.2,424L287.2,424A7.2,7.2,0,0,1,280,431.2L272,431.2L264,431.2A7.2,7.2,0,0,1,256.8,424L256.8,424A7.2,7.2,0,0,1,264,416.8M344,416.8L352,416.8L360,416.8A7.2,7.2,0,0,1,367.2,424L367.2,424A7.2,7.2,0,0,1,360,431.2L352,431.2L344,431.2A7.2,7.2,0,0,1,336.8,424L336.8,424A7.2,7.2,0,0,1,344,416.8M392,416.8L400,416.8L416,416.8L432,416.8L440,416.8A7.2,7.2,0,0,1,447.2,424L447.2,424A7.2,7.2,0,0,1,440,431.2L432,431.2L416,431.2L400,431.2L392,431.2A7.2,7.2,0,0,1,384.8,424L384.8,424A7.2,7.2,0,0,1,392,416.8M488,416.8L496,416.8L504,416.8A7.2,7.2,0,0,1,511.2,424L511.2,424A7.2,7.2,0,0,1,504,431.2L496,431.2L488,431.2A7.2,7.2,0,0,1,480.8,424L480.8,424A7.2,7.2,0,0,1,488,416.8M552,416.8L560,416.8L576,416.8L584,416.8A7.2,7.2,0,0,1,591.2,424L591.2,424A7.2,7.2,0,0,1,584,431.2L576,431.2L560,431.2L552,431.2A7.2,7.2,0,0,1,544.8,424L544.8,424A7.2,7.2,0,0,1,552,416.8ZM72,432.8L72,432.8A7.2,7.2,0,0,1,79.2,440L79.2,440A7.2,7.2,0,0,1,72,447.2L72,447.2A7.2,7.2,0,0,1,64.8,440L64.8,440A7.2,7.2,0,0,1,72,432.8M136,432.8L136,432.8A7.2,7.2,0,0,1,143.2,440L143.2,440A7.2,7.2,0,0,1,136,447.2L136,447.2A7.2,7.2,0,0,1,128.8,440L128.8,440A7.2,7.2,0,0,1,136,432.8M184,432.8L192,432.8L208,432.8L224,432.8L240,432.8L248,432.8A7.2,7.2,0,0,1,255.2,440L255.2,440A7.2,7.2,0,0,1,248,447.2L240,447.2L224,447.2L208,447.2L192,447.2L184,447.2A7.2,7.2,0,0,1,176.8,440L176.8,440A7.2,7.2,0,0,1,184,432.8M312,432.8L320,432.8L336,432.8L344,432.8A7.2,7.2,0,0,1,351.2,440L351.2,440A7.2,7.2,0,0,1,344,447.2L336,447.2L320,447.2L312,447.2A7.2,7.2,0,0,1,304.8,440L304.8,440A7.2,7.2,0,0,1,312,432.8M376,432.8L384,432.8L392,432.8A7.2,7.2,0,0,1,399.2,440L399.2,440A7.2,7.2,0,0,1,392,447.2L384,447.2L376,447.2A7.2,7.2,0,0,1,368.8,440L368.8,440A7.2,7.2,0,0,1,376,432.8M440,432.8L448,432.8L456,432.8A7.2,7.2,0,0,1,463.2,440L463.2,440A7.2,7.2,0,0,1,456,447.2L448,447.2L440,447.2A7.2,7.2,0,0,1,432.8,440L432.8,440A7.2,7.2,0,0,1,440,432.8M504,432.8L512,432.8L520,432.8A7.2,7.2,0,0,1,527.2,440L527.2,440A7.2,7.2,0,0,1,520,447.2L512,447.2L504,447.2A7.2,7.2,0,0,1,496.8,440L496.8,440A7.2,7.2,0,0,1,504,432.8M552,432.8L560,432.8L568,432.8A7.2,7.2,0,0,1,575.2,440L575.2,440A7.2,7.2,0,0,1,568,447.2L560,447.2L552,447.2A7.2,7.2,0,0,1,544.8,440L544.8,440A7.2,7.2,0,0,1,552,432.8ZM72,448.8L80,448.8L88,448.8A7.2,7.2,0,0,1,95.2,456L95.2,456A7.2,7.2,0,0,1,88,463.2L80,463.2L72,463.2A7.2,7.2,0,0,1,64.8,456L64.8,456A7.2,7.2,0,0,1,72,448.8M152,448.8L160,448.8L176,448.8L192,448.8L200,448.8A7.2,7.2,0,0,1,207.2,456L207.2,456A7.2,7.2,0,0,1,200,463.2L192,463.2L176,463.2L160,463.2L152,463.2A7.2,7.2,0,0,1,144.8,456L144.8,456A7.2,7.2,0,0,1,152,448.8M232,448.8L232,448.8A7.2,7.2,0,0,1,239.2,456L239.2,456A7.2,7.2,0,0,1,232,463.2L232,463.2A7.2,7.2,0,0,1,224.8,456L224.8,456A7.2,7.2,0,0,1,232,448.8M264,448.8L264,448.8A7.2,7.2,0,0,1,271.2,456L271.2,456A7.2,7.2,0,0,1,264,463.2L264,463.2A7.2,7.2,0,0,1,256.8,456L256.8,456A7.2,7.2,0,0,1,264,448.8M296,448.8L296,448.8A7.2,7.2,0,0,1,303.2,456L303.2,456A7.2,7.2,0,0,1,296,463.2L296,463.2A7.2,7.2,0,0,1,288.8,456L288.8,456A7.2,7.2,0,0,1,296,448.8M344,448.8L344,448.8A7.2,7.2,0,0,1,351.2,456L351.2,456A7.2,7.2,0,0,1,344,463.2L344,463.2A7.2,7.2,0,0,1,336.8,456L336.8,456A7.2,7.2,0,0,1,344,448.8M392,448.8L392,448.8A7.2,7.2,0,0,1,399.2,456L399.2,456A7.2,7.2,0,0,1,392,463.2L392,463.2A7.2,7.2,0,0,1,384.8,456L384.8,456A7.2,7.2,0,0,1,392,448.8M440,448.8L448,448.8L464,448.8L480,448.8L496,448.8L512,448.8L520,448.8A7.2,7.2,0,0,1,527.2,456L527.2,456A7.2,7.2,0,0,1,520,463.2L512,463.2L496,463.2L480,463.2L464,463.2L448,463.2L440,463.2A7.2,7.2,0,0,1,432.8,456L432.8,456A7.2,7.2,0,0,1,440,448.8M568,448.8L576,448.8L584,448.8A7.2,7.2,0,0,1,591.2,456L591.2,456A7.2,7.2,0,0,1,584,463.2L576,463.2L568,463.2A7.2,7.2,0,0,1,560.8,456L560.8,456A7.2,7.2,0,0,1,568,448.8ZM200,464.8L208,464.8L216,464.8A7.2,7.2,0,0,1,223.2,472L223.2,472A7.2,7.2,0,0,1,216,479.2L208,479.2L200,479.2A7.2,7.2,0,0,1,192.8,472L192.8,472A7.2,7.2,0,0,1,200,464.8M248,464.8L248,464.8A7.2,7.2,0,0,1,255.2,472L255.2,472A7.2,7.2,0,0,1,248,479.2L248,479.2A7.2,7.2,0,0,1,240.8,472L240.8,472A7.2,7.2,0,0,1,248,464.8M280,464.8L288,464.8L296,464.8A7.2,7.2,0,0,1,303.2,472L303.2,472A7.2,7.2,0,0,1,296,479.2L288,479.2L280,479.2A7.2,7.2,0,0,1,272.8,472L272.8,472A7.2,7.2,0,0,1,280,464.8M328,464.8L328,464.8A7.2,7.2,0,0,1,335.2,472L335.2,472A7.2,7.2,0,0,1,328,479.2L328,479.2A7.2,7.2,0,0,1,320.8,472L320.8,472A7.2,7.2,0,0,1,328,464.8M376,464.8L384,464.8L400,464.8L416,464.8L432,464.8L448,464.8L456,464.8A7.2,7.2,0,0,1,463.2,472L463.2,472A7.2,7.2,0,0,1,456,479.2L448,479.2L432,479.2L416,479.2L400,479.2L384,479.2L376,479.2A7.2,7.2,0,0,1,368.8,472L368.8,472A7.2,7.2,0,0,1,376,464.8M520,464.8L520,464.8A7.2,7.2,0,0,1,527.2,472L527.2,472A7.2,7.2,0,0,1,520,479.2L520,479.2A7.2,7.2,0,0,1,512.8,472L512.8,472A7.2,7.2,0,0,1,520,464.8M568,464.8L568,464.8A7.2,7.2,0,0,1,575.2,472L575.2,472A7.2,7.2,0,0,1,568,479.2L568,479.2A7.2,7.2,0,0,1,560.8,472L560.8,472A7.2,7.2,0,0,1,568,464.8ZM200,480.8L208,480.8L216,480.8A7.2,7.2,0,0,1,223.2,488L223.2,488A7.2,7.2,0,0,1,216,495.2L208,495.2L200,495.2A7.2,7.2,0,0,1,192.8,488L192.8,488A7.2,7.2,0,0,1,200,480.8M264,480.8L272,480.8L288,480.8L296,480.8A7.2,7.2,0,0,1,303.2,488L303.2,488A7.2,7.2,0,0,1,296,495.2L288,495.2L272,495.2L264,495.2A7.2,7.2,0,0,1,256.8,488L256.8,488A7.2,7.2,0,0,1,264,480.8M328,480.8L336,480.8L352,480.8L360,480.8A7.2,7.2,0,0,1,367.2,488L367.2,488A7.2,7.2,0,0,1,360,495.2L352,495.2L336,495.2L328,495.2A7.2,7.2,0,0,1,320.8,488L320.8,488A7.2,7.2,0,0,1,328,480.8M440,480.8L448,480.8L456,480.8A7.2,7.2,0,0,1,463.2,488L463.2,488A7.2,7.2,0,0,1,456,495.2L448,495.2L440,495.2A7.2,7.2,0,0,1,432.8,488L432.8,488A7.2,7.2,0,0,1,440,480.8M488,480.8L488,480.8A7.2,7.2,0,0,1,495.2,488L495.2,488A7.2,7.2,0,0,1,488,495.2L488,495.2A7.2,7.2,0,0,1,480.8,488L480.8,488A7.2,7.2,0,0,1,488,480.8M520,480.8L528,480.8L536,480.8A7.2,7.2,0,0,1,543.2,488L543.2,488A7.2,7.2,0,0,1,536,495.2L528,495.2L520,495.2A7.2,7.2,0,0,1,512.8,488L512.8,488A7.2,7.2,0,0,1,520,480.8ZM216,496.8L216,496.8A7.2,7.2,0,0,1,223.2,504L223.2,504A7.2,7.2,0,0,1,216,511.2L216,511.2A7.2,7.2,0,0,1,208.8,504L208.8,504A7.2,7.2,0,0,1,216,496.8M248,496.8L256,496.8L264,496.8A7.2,7.2,0,0,1,271.2,504L271.2,504A7.2,7.2,0,0,1,264,511.2L256,511.2L248,511.2A7.2,7.2,0,0,1,240.8,504L240.8,504A7.2,7.2,0,0,1,248,496.8M296,496.8L304,496.8L312,496.8A7.2,7.2,0,0,1,319.2,504L319.2,504A7.2,7.2,0,0,1,312,511.2L304,511.2L296,511.2A7.2,7.2,0,0,1,288.8,504L288.8,504A7.2,7.2,0,0,1,296,496.8M408,496.8L416,496.8L424,496.8A7.2,7.2,0,0,1,431.2,504L431.2,504A7.2,7.2,0,0,1,424,511.2L416,511.2L408,511.2A7.2,7.2,0,0,1,400.8,504L400.8,504A7.2,7.2,0,0,1,408,496.8M456,496.8L456,496.8A7.2,7.2,0,0,1,463.2,504L463.2,504A7.2,7.2,0,0,1,456,511.2L456,511.2A7.2,7.2,0,0,1,448.8,504L448.8,504A7.2,7.2,0,0,1,456,496.8M520,496.8L528,496.8L544,496.8L560,496.8L568,496.8A7.2,7.2,0,0,1,575.2,504L575.2,504A7.2,7.2,0,0,1,568,511.2L560,511.2L544,511.2L528,511.2L520,511.2A7.2,7.2,0,0,1,512.8,504L512.8,504A7.2,7.2,0,0,1,520,496.8ZM200,512.8L200,512.8A7.2,7.2,0,0,1,207.2,520L207.2,520A7.2,7.2,0,0,1,200,527.2L200,527.2A7.2,7.2,0,0,1,192.8,520L192.8,520A7.2,7.2,0,0,1,200,512.8M264,512.8L272,512.8L288,512.8L304,512.8L320,512.8L336,512.8L352,512.8L360,512.8A7.2,7.2,0,0,1,367.2,520L367.2,520A7.2,7.2,0,0,1,360,527.2L352,527.2L336,527.2L320,527.2L304,527.2L288,527.2L272,527.2L264,527.2A7.2,7.2,0,0,1,256.8,520L256.8,520A7.2,7.2,0,0,1,264,512.8M392,512.8L400,512.8L416,512.8L432,512.8L448,512.8L464,512.8L480,512.8L496,512.8L512,512.8L520,512.8A7.2,7.2,0,0,1,527.2,520L527.2,520A7.2,7.2,0,0,1,520,527.2L512,527.2L496,527.2L480,527.2L464,527.2L448,527.2L432,527.2L416,527.2L400,527.2L392,527.2A7.2,7.2,0,0,1,384.8,520L384.8,520A7.2,7.2,0,0,1,392,512.8M552,512.8L560,512.8L568,512.8A7.2,7.2,0,0,1,575.2,520L575.2,520A7.2,7.2,0,0,1,568,527.2L560,527.2L552,527.2A7.2,7.2,0,0,1,544.8,520L544.8,520A7.2,7.2,0,0,1,552,512.8ZM200,528.8L208,528.8L216,528.8A7.2,7.2,0,0,1,223.2,536L223.2,536A7.2,7.2,0,0,1,216,543.2L208,543.2L200,543.2A7.2,7.2,0,0,1,192.8,536L192.8,536A7.2,7.2,0,0,1,200,528.8M248,528.8L248,528.8A7.2,7.2,0,0,1,255.2,536L255.2,536A7.2,7.2,0,0,1,248,543.2L248,543.2A7.2,7.2,0,0,1,240.8,536L240.8,536A7.2,7.2,0,0,1,248,528.8M296,528.8L296,528.8A7.2,7.2,0,0,1,303.2,536L303.2,536A7.2,7.2,0,0,1,296,543.2L296,543.2A7.2,7.2,0,0,1,288.8,536L288.8,536A7.2,7.2,0,0,1,296,528.8M328,528.8L336,528.8L344,528.8A7.2,7.2,0,0,1,351.2,536L351.2,536A7.2,7.2,0,0,1,344,543.2L336,543.2L328,543.2A7.2,7.2,0,0,1,320.8,536L320.8,536A7.2,7.2,0,0,1,328,528.8M376,528.8L384,528.8L400,528.8L416,528.8L424,528.8A7.2,7.2,0,0,1,431.2,536L431.2,536A7.2,7.2,0,0,1,424,543.2L416,543.2L400,543.2L384,543.2L376,543.2A7.2,7.2,0,0,1,368.8,536L368.8,536A7.2,7.2,0,0,1,376,528.8M456,528.8L464,528.8L472,528.8A7.2,7.2,0,0,1,479.2,536L479.2,536A7.2,7.2,0,0,1,472,543.2L464,543.2L456,543.2A7.2,7.2,0,0,1,448.8,536L448.8,536A7.2,7.2,0,0,1,456,528.8M504,528.8L504,528.8A7.2,7.2,0,0,1,511.2,536L511.2,536A7.2,7.2,0,0,1,504,543.2L504,543.2A7.2,7.2,0,0,1,496.8,536L496.8,536A7.2,7.2,0,0,1,504,528.8M568,528.8L568,528.8A7.2,7.2,0,0,1,575.2,536L575.2,536A7.2,7.2,0,0,1,568,543.2L568,543.2A7.2,7.2,0,0,1,560.8,536L560.8,536A7.2,7.2,0,0,1,568,528.8ZM232,544.8L232,544.8A7.2,7.2,0,0,1,239.2,552L239.2,552A7.2,7.2,0,0,1,232,559.2L232,559.2A7.2,7.2,0,0,1,224.8,552L224.8,552A7.2,7.2,0,0,1,232,544.8M296,544.8L296,544.8A7.2,7.2,0,0,1,303.2,552L303.2,552A7.2,7.2,0,0,1,296,559.2L296,559.2A7.2,7.2,0,0,1,288.8,552L288.8,552A7.2,7.2,0,0,1,296,544.8M344,544.8L344,544.8A7.2,7.2,0,0,1,351.2,552L351.2,552A7.2,7.2,0,0,1,344,559.2L344,559.2A7.2,7.2,0,0,1,336.8,552L336.8,552A7.2,7.2,0,0,1,344,544.8M392,544.8L392,544.8A7.2,7.2,0,0,1,399.2,552L399.2,552A7.2,7.2,0,0,1,392,559.2L392,559.2A7.2,7.2,0,0,1,384.8,552L384.8,552A7.2,7.2,0,0,1,392,544.8M440,544.8L440,544.8A7.2,7.2,0,0,1,447.2,552L447.2,552A7.2,7.2,0,0,1,440,559.2L440,559.2A7.2,7.2,0,0,1,432.8,552L432.8,552A7.2,7.2,0,0,1,440,544.8M520,544.8L528,544.8L536,544.8A7.2,7.2,0,0,1,543.2,552L543.2,552A7.2,7.2,0,0,1,536,559.2L528,559.2L520,559.2A7.2,7.2,0,0,1,512.8,552L512.8,552A7.2,7.2,0,0,1,520,544.8M568,544.8L576,544.8L584,544.8A7.2,7.2,0,0,1,591.2,552L591.2,552A7.2,7.2,0,0,1,584,559.2L576,559.2L568,559.2A7.2,7.2,0,0,1,560.8,552L560.8,552A7.2,7.2,0,0,1,568,544.8ZM216,560.8L216,560.8A7.2,7.2,0,0,1,223.2,568L223.2,568A7.2,7.2,0,0,1,216,575.2L216,575.2A7.2,7.2,0,0,1,208.8,568L208.8,568A7.2,7.2,0,0,1,216,560.8M280,560.8L288,560.8L296,560.8A7.2,7.2,0,0,1,303.2,568L303.2,568A7.2,7.2,0,0,1,296,575.2L288,575.2L280,575.2A7.2,7.2,0,0,1,272.8,568L272.8,568A7.2,7.2,0,0,1,280,560.8M328,560.8L336,560.8L352,560.8L360,560.8A7.2,7.2,0,0,1,367.2,568L367.2,568A7.2,7.2,0,0,1,360,575.2L352,575.2L336,575.2L328,575.2A7.2,7.2,0,0,1,320.8,568L320.8,568A7.2,7.2,0,0,1,328,560.8M392,560.8L392,560.8A7.2,7.2,0,0,1,399.2,568L399.2,568A7.2,7.2,0,0,1,392,575.2L392,575.2A7.2,7.2,0,0,1,384.8,568L384.8,568A7.2,7.2,0,0,1,392,560.8M424,560.8L432,560.8L440,560.8A7.2,7.2,0,0,1,447.2,568L447.2,568A7.2,7.2,0,0,1,440,575.2L432,575.2L424,575.2A7.2,7.2,0,0,1,416.8,568L416.8,568A7.2,7.2,0,0,1,424,560.8M536,560.8L536,560.8A7.2,7.2,0,0,1,543.2,568L543.2,568A7.2,7.2,0,0,1,536,575.2L536,575.2A7.2,7.2,0,0,1,528.8,568L528.8,568A7.2,7.2,0,0,1,536,560.8M568,560.8L576,560.8L584,560.8A7.2,7.2,0,0,1,591.2,568L591.2,568A7.2,7.2,0,0,1,584,575.2L576,575.2L568,575.2A7.2,7.2,0,0,1,560.8,568L560.8,568A7.2,7.2,0,0,1,568,560.8ZM216,576.8L224,576.8L240,576.8L256,576.8L272,576.8L288,576.8L304,576.8L312,576.8A7.2,7.2,0,0,1,319.2,584L319.2,584A7.2,7.2,0,0,1,312,591.2L304,591.2L288,591.2L272,591.2L256,591.2L240,591.2L224,591.2L216,591.2A7.2,7.2,0,0,1,208.8,584L208.8,584A7.2,7.2,0,0,1,216,576.8M376,576.8L384,576.8L392,576.8A7.2,7.2,0,0,1,399.2,584L399.2,584A7.2,7.2,0,0,1,392,591.2L384,591.2L376,591.2A7.2,7.2,0,0,1,368.8,584L368.8,584A7.2,7.2,0,0,1,376,576.8M440,576.8L448,576.8L464,576.8L472,576.8A7.2,7.2,0,0,1,479.2,584L479.2,584A7.2,7.2,0,0,1,472,591.2L464,591.2L448,591.2L440,591.2A7.2,7.2,0,0,1,432.8,584L432.8,584A7.2,7.2,0,0,1,440,576.8M520,576.8L520,576.8A7.2,7.2,0,0,1,527.2,584L527.2,584A7.2,7.2,0,0,1,520,591.2L520,591.2A7.2,7.2,0,0,1,512.8,584L512.8,584A7.2,7.2,0,0,1,520,576.8M552,576.8L552,576.8A7.2,7.2,0,0,1,559.2,584L559.2,584A7.2,7.2,0,0,1,552,591.2L552,591.2A7.2,7.2,0,0,1,544.8,584L544.8,584A7.2,7.2,0,0,1,552,576.8Z" />
</g>
<g id='corners-outer-1' transform="translate(64, 64) scale(5.60, 5.60) " style='fill:#000000' >
<path d="M 13.95 0 H 6.04 C 5.24 0 4.46 0.16 3.73 0.46 C 2.99 0.77 2.33 1.21 1.77 1.77 C 1.21 2.33 0.76 3 0.46 3.73 C 0.16 4.47 0 5.25 0 6.05 V 13.96 C 0 15.56 0.64 17.1 1.77 18.23 C 2.91 19.36 4.44 20 6.05 20 H 13.96 C 15.56 20 17.1 19.36 18.23 18.23 C 19.36 17.09 20 15.56 20 13.95 V 6.04 C 20 4.44 19.36 2.9 18.23 1.77 C 17.09 0.64 15.56 0 13.95 0 Z M 17.14 12.82 C 17.14 13.97 16.69 15.07 15.88 15.88 C 15.07 16.69 13.97 17.14 12.82 17.14 H 7.18 C 6.03 17.14 4.93 16.69 4.12 15.88 C 3.31 15.07 2.86 13.97 2.86 12.82 V 7.18 C 2.86 6.03 3.31 4.93 4.12 4.12 C 4.93 3.31 6.03 2.86 7.18 2.86 H 12.82 C 13.97 2.86 15.07 3.31 15.88 4.12 C 16.69 4.93 17.15 6.03 17.15 7.18 V 12.82 H 17.14 Z" />
</g>
<g id='corners-inner-1' transform="translate(96, 96) scale(5.60, 5.60) " style='fill:#000000' >
<path d="M 8.31 5.78 C 8.31 6.44 8.04 7.08 7.57 7.55 C 7.11 8.02 6.47 8.28 5.81 8.28 H 2.5 C 1.84 8.28 1.2 8.02 0.73 7.55 C 0.26 7.08 0 6.44 0 5.78 V 2.5 C 0 1.84 0.26 1.2 0.73 0.73 C 1.2 0.26 1.84 0 2.5 0 H 5.78 C 6.44 0 7.08 0.26 7.55 0.73 C 8.02 1.2 8.28 1.84 8.28 2.5 L 8.31 5.78 Z" />
</g>
<g id='corners-outer-2' transform="translate(480, 64) scale(5.60, 5.60) " style='fill:#000000' >
<path d="M 13.95 0 H 6.04 C 5.24 0 4.46 0.16 3.73 0.46 C 2.99 0.77 2.33 1.21 1.77 1.77 C 1.21 2.33 0.76 3 0.46 3.73 C 0.16 4.47 0 5.25 0 6.05 V 13.96 C 0 15.56 0.64 17.1 1.77 18.23 C 2.91 19.36 4.44 20 6.05 20 H 13.96 C 15.56 20 17.1 19.36 18.23 18.23 C 19.36 17.09 20 15.56 20 13.95 V 6.04 C 20 4.44 19.36 2.9 18.23 1.77 C 17.09 0.64 15.56 0 13.95 0 Z M 17.14 12.82 C 17.14 13.97 16.69 15.07 15.88 15.88 C 15.07 16.69 13.97 17.14 12.82 17.14 H 7.18 C 6.03 17.14 4.93 16.69 4.12 15.88 C 3.31 15.07 2.86 13.97 2.86 12.82 V 7.18 C 2.86 6.03 3.31 4.93 4.12 4.12 C 4.93 3.31 6.03 2.86 7.18 2.86 H 12.82 C 13.97 2.86 15.07 3.31 15.88 4.12 C 16.69 4.93 17.15 6.03 17.15 7.18 V 12.82 H 17.14 Z" />
</g>
<g id='corners-inner-2' transform="translate(512, 96) scale(5.60, 5.60) " style='fill:#000000' >
<path d="M 8.31 5.78 C 8.31 6.44 8.04 7.08 7.57 7.55 C 7.11 8.02 6.47 8.28 5.81 8.28 H 2.5 C 1.84 8.28 1.2 8.02 0.73 7.55 C 0.26 7.08 0 6.44 0 5.78 V 2.5 C 0 1.84 0.26 1.2 0.73 0.73 C 1.2 0.26 1.84 0 2.5 0 H 5.78 C 6.44 0 7.08 0.26 7.55 0.73 C 8.02 1.2 8.28 1.84 8.28 2.5 L 8.31 5.78 Z" />
</g>
<g id='corners-outer-3' transform="translate(64, 480) scale(5.60, 5.60) " style='fill:#000000' >
<path d="M 13.95 0 H 6.04 C 5.24 0 4.46 0.16 3.73 0.46 C 2.99 0.77 2.33 1.21 1.77 1.77 C 1.21 2.33 0.76 3 0.46 3.73 C 0.16 4.47 0 5.25 0 6.05 V 13.96 C 0 15.56 0.64 17.1 1.77 18.23 C 2.91 19.36 4.44 20 6.05 20 H 13.96 C 15.56 20 17.1 19.36 18.23 18.23 C 19.36 17.09 20 15.56 20 13.95 V 6.04 C 20 4.44 19.36 2.9 18.23 1.77 C 17.09 0.64 15.56 0 13.95 0 Z M 17.14 12.82 C 17.14 13.97 16.69 15.07 15.88 15.88 C 15.07 16.69 13.97 17.14 12.82 17.14 H 7.18 C 6.03 17.14 4.93 16.69 4.12 15.88 C 3.31 15.07 2.86 13.97 2.86 12.82 V 7.18 C 2.86 6.03 3.31 4.93 4.12 4.12 C 4.93 3.31 6.03 2.86 7.18 2.86 H 12.82 C 13.97 2.86 15.07 3.31 15.88 4.12 C 16.69 4.93 17.15 6.03 17.15 7.18 V 12.82 H 17.14 Z" />
</g>
<g id='corners-inner-3' transform="translate(96, 512) scale(5.60, 5.60) " style='fill:#000000' >
<path d="M 8.31 5.78 C 8.31 6.44 8.04 7.08 7.57 7.55 C 7.11 8.02 6.47 8.28 5.81 8.28 H 2.5 C 1.84 8.28 1.2 8.02 0.73 7.55 C 0.26 7.08 0 6.44 0 5.78 V 2.5 C 0 1.84 0.26 1.2 0.73 0.73 C 1.2 0.26 1.84 0 2.5 0 H 5.78 C 6.44 0 7.08 0.26 7.55 0.73 C 8.02 1.2 8.28 1.84 8.28 2.5 L 8.31 5.78 Z" />
</g>
</svg>
