<svg width="300" height="100" viewBox="0 0 300 100" fill="none" xmlns="http://www.w3.org/2000/svg">
<g clip-path="url(#clip0_17513_5880)">
<mask id="mask0_17513_5880" style="mask-type:luminance" maskUnits="userSpaceOnUse" x="25" y="28" width="250" height="43">
<path d="M274.796 28H25V70.8768H274.796V28Z" fill="white"/>
</mask>
<g mask="url(#mask0_17513_5880)">
<path d="M100.474 55.3616C100.504 54.2524 100.318 53.1489 99.9258 52.1118C99.5963 51.2813 99.1013 50.5267 98.4673 49.8953C97.8562 49.2999 97.1632 48.7975 96.4055 48.4031C95.6552 48.0126 94.8804 47.6675 94.0864 47.3698C93.2355 47.0513 92.4148 46.7005 91.6247 46.3156C90.9107 45.9819 90.2575 45.5344 89.6901 44.9903C89.2182 44.5523 88.9497 43.9418 88.944 43.3009C88.8925 42.4875 89.2638 41.7045 89.9283 41.2286C90.5851 40.7678 91.4838 40.5384 92.628 40.5384C93.6447 40.5536 94.6538 40.7375 95.6095 41.0845C96.6852 41.4561 97.7286 41.9168 98.7264 42.4629L100.733 38.43C99.5944 37.6925 98.378 37.0839 97.104 36.6136C95.7542 36.1036 94.0006 35.8495 91.8417 35.8495C90.3109 35.8913 88.8087 36.2743 87.4456 36.972C86.2366 37.5882 85.2198 38.5248 84.5097 39.6795C83.7938 40.9025 83.4338 42.2979 83.4701 43.7124C83.3769 45.8454 84.3384 47.8874 86.0424 49.1824C86.8059 49.7721 87.6302 50.2783 88.5042 50.6898C89.3799 51.1031 90.2327 51.4633 91.0592 51.7818C91.7388 52.034 92.392 52.3507 93.0127 52.7261C93.5515 53.0427 94.0312 53.4485 94.433 53.9244C94.7757 54.332 94.9621 54.8458 94.9621 55.3767C95.0023 56.0442 94.7718 56.6983 94.3243 57.1951C93.8826 57.6388 93.3287 57.9592 92.7212 58.1203C92.0988 58.2986 91.4533 58.3914 90.804 58.3952C90.1016 58.3857 89.4008 58.2871 88.7231 58.1014C87.1733 57.6935 85.7129 57.0036 84.4165 56.0669L82.082 60.1736C83.0075 60.8145 83.9993 61.3568 85.0389 61.7928C87.0152 62.6082 89.1343 63.031 91.2743 63.0329C93.2677 63.0329 94.947 62.6744 96.3084 61.9599C97.582 61.3244 98.6541 60.35 99.4041 59.144C100.107 58.0085 100.476 56.6982 100.472 55.3634" fill="#07010D"/>
<path d="M121.379 35.0988H121.09L109.042 62.741H114.23L120.961 46.6455L127.331 62.741H133.426L121.379 35.0988Z" fill="#07010D"/>
<path d="M149.051 41.2058H160.482V36.1434H143.792V62.741H149.051V52.2995H158.957V47.239H149.051V41.2058Z" fill="#07010D"/>
<path d="M190.214 57.6823H176.753V51.9374H188.218V46.8788H176.753V41.2058H189.705V36.1434H171.49V62.741H190.214V57.6823Z" fill="#07010D"/>
<path d="M36.3171 54.679L49.0963 58.0787L39.3082 65.2284L39.3139 65.2361L52.9688 59.1101L53.9361 54.5444L42.5944 51.4254L55.9143 44.5239L58.1913 33.6407L34.8701 49.3019L36.3171 54.679Z" fill="#07010D"/>
<path d="M58.2522 70.8768H34.8053C29.4 70.8768 25 66.4971 25 61.1122V37.7645C25 32.3798 29.3981 28 34.8053 28H58.2522C63.6576 28 68.0575 32.3798 68.0575 37.7645V61.1141C68.0575 66.4987 63.6592 70.8787 58.2522 70.8787V70.8768ZM34.8053 28.7508C29.815 28.7508 25.754 32.795 25.754 37.7645V61.1141C25.754 66.0835 29.8131 70.128 34.8053 70.128H58.2522C63.2423 70.128 67.3036 66.0854 67.3036 61.1141V37.7645C67.3036 32.795 63.2442 28.7508 58.2522 28.7508H34.8053Z" fill="#07010D"/>
<path d="M213.198 59.0948C211.592 58.1619 210.335 56.8538 209.43 55.172C208.524 53.4902 208.071 51.5923 208.071 49.4801C208.071 47.3679 208.524 45.4453 209.43 43.7731C210.337 42.1007 211.594 40.8001 213.198 39.8653C214.805 38.9325 216.606 38.4661 218.604 38.4661C220.601 38.4661 222.404 38.9325 224.009 39.8653C225.616 40.7982 226.871 42.1007 227.777 43.7731C228.683 45.4453 229.136 47.3471 229.136 49.4801C229.136 51.6131 228.683 53.4902 227.777 55.172C226.871 56.8538 225.614 58.1619 224.009 59.0948C222.402 60.0276 220.601 60.494 218.604 60.494C216.606 60.494 214.803 60.0276 213.198 59.0948ZM223.238 58.0652C224.618 57.2652 225.704 56.1275 226.497 54.6506C227.289 53.1735 227.687 51.452 227.687 49.482C227.687 47.512 227.291 45.7601 226.497 44.2831C225.704 42.8061 224.618 41.6685 223.238 40.8683C221.858 40.0682 220.313 39.6681 218.604 39.6681C216.894 39.6681 215.35 40.0682 213.97 40.8683C212.589 41.6685 211.498 42.8061 210.695 44.2831C209.891 45.7601 209.49 47.4931 209.49 49.482C209.49 51.4709 209.891 53.1735 210.695 54.6506C211.498 56.1275 212.589 57.2652 213.97 58.0652C215.35 58.8655 216.894 59.2654 218.604 59.2654C220.313 59.2654 221.858 58.8655 223.238 58.0652Z" fill="#07010D"/>
<path d="M253.79 60.2475H252.4L239.672 40.9271V60.2475H238.282V38.6822H239.672L252.4 57.94V38.6822H253.79V60.2475Z" fill="#07010D"/>
<path d="M265.219 39.8198V48.8335H273.868V50.0034H265.219V59.0778H274.796V60.2475H263.829V38.6519H274.796V39.8217H265.219V39.8198Z" fill="#07010D"/>
</g>
</g>
<defs>
<clipPath id="clip0_17513_5880">
<rect width="250" height="43" fill="white" transform="translate(25 28)"/>
</clipPath>
</defs>
</svg>
